<?xml version="1.0" encoding="UTF-8"?>
<svg width="51px" height="48px" viewBox="0 0 51 48" version="1.1" xmlns="http://www.w3.org/2000/svg" xmlns:xlink="http://www.w3.org/1999/xlink">
    <title>nav-logo</title>
    <defs>
        <polygon id="path-1" points="0 0 47.1491228 0 47.1491228 30.7497259 0 30.7497259"></polygon>
        <polygon id="path-3" points="2.33731163e-15 0 48.0263158 0 48.0263158 31.4076206 2.33731163e-15 31.4076206"></polygon>
        <polygon id="path-5" points="2.33731163e-15 0 50 0 50 25.4385965 2.33731163e-15 25.4385965"></polygon>
    </defs>
    <g id="Page-1" stroke="none" stroke-width="1" fill="none" fill-rule="evenodd">
        <g id="nav-logo" transform="translate(0.213541, 0.666667)">
            <g id="Clipped" transform="translate(1.390317, 0.657895)">
                <mask id="mask-2" fill="white">
                    <use xlink:href="#path-1"></use>
                </mask>
                <g id="Path"></g>
                <path d="M21.6574149,0.607353289 L2.73523158,9.55060987 C1.1984307,10.294168 0.214158333,11.8532414 0.214158333,13.5793586 L0.238144298,36.5499932 C0.238144298,38.2529811 1.22241645,39.8351838 2.78320307,40.5547561 L21.6814009,49.5219982 C22.8824013,50.0976561 24.2992737,50.0976561 25.5002741,49.5219982 L44.4224575,40.5547561 C45.9832443,39.8111978 46.9675164,38.2529811 46.9675164,36.5260075 L46.9675164,13.5553728 C46.9675164,11.8292557 45.9832443,10.2701822 44.4224575,9.55060987 L25.4762884,0.607353289 C24.2752877,0.0316953947 22.8824013,0.0316953947 21.6574149,0.607353289 Z" id="Path" fill="#FF1616" fill-rule="nonzero" mask="url(#mask-2)"></path>
            </g>
            <g id="Clipped" transform="translate(0.956003, 0.000000)">
                <mask id="mask-4" fill="white">
                    <use xlink:href="#path-3"></use>
                </mask>
                <g id="Path"></g>
                <path d="M24.0131579,51.2592518 C23.2687432,51.2592518 22.5243285,51.0913513 21.8278853,50.7555509 L2.9296875,41.7883088 C1.17701491,40.9488075 0.0239857456,39.1507333 0.0239857456,37.2078879 L-3.55271368e-15,14.2372533 C-3.55271368e-15,12.2712787 1.12904342,10.4723478 2.90570175,9.63370351 L21.8278853,0.689590132 C23.2207717,0.041975 24.8055441,0.041975 26.1984307,0.689590132 L45.120614,9.65768904 C46.8981292,10.4963336 48.0263158,12.2952645 48.0263158,14.2372533 L48.0263158,37.2078879 C48.0263158,39.1507333 46.8732868,40.9727934 45.120614,41.8122943 L26.1984307,50.7795368 C25.5019875,51.0913513 24.7575726,51.2592518 24.0131579,51.2592518 Z M22.380414,1.84090592 L3.45823048,10.7841625 C2.13730132,11.4077919 1.27295789,12.7749794 1.27295789,14.2372533 L1.29694364,37.2078879 C1.29694364,38.6710184 2.16128706,40.0133636 3.48221645,40.636993 L22.380414,49.6050919 C23.4126577,50.107936 24.6136581,50.107936 25.645902,49.6050919 L44.5680853,40.636993 C45.8890147,40.0133636 46.7533581,38.6710184 46.7533581,37.2078879 L46.7533581,14.2372533 C46.7533581,12.7749794 45.8890147,11.4317776 44.5680853,10.8081482 L25.645902,1.84090592 C24.6136581,1.33720526 23.4126577,1.33720526 22.380414,1.84090592 Z" id="Shape" fill="#000000" fill-rule="nonzero" mask="url(#mask-4)"></path>
            </g>
            <path d="M48.9823191,31.0889529 L0.956003289,31.0889529 L0.956003289,38.4654263 L48.9823191,38.4654263 L48.9823191,31.0889529 M0.956003289,38.4654263 L0.956003289,39.0556469 C19.2160088,42.8573877 30.7223136,42.8573877 48.9823191,39.0556469 L48.9823191,38.4654263 L0.956003289,38.4654263 M48.9823191,30.4387678 C30.7223136,26.6378838 19.2160088,26.6378838 0.956003289,30.4387678 L0.956003289,31.0889529 L48.9823191,31.0889529 C48.9823191,31.0889529 48.9823191,30.4387678 48.9823191,30.4387678" id="Shape" fill="#000000" fill-rule="nonzero"></path>
            <path d="M2.88000285,34.2268024 C2.6075932,34.2268024 2.3865818,34.4478138 2.3865818,34.7202235 C2.3865818,34.9926329 2.6075932,35.2136445 2.88000285,35.2136445 C3.15241228,35.2136445 3.3734239,34.9926329 3.3734239,34.7202235 C3.3734239,34.4478138 3.15241228,34.2268024 2.88000285,34.2268024" id="Path" fill="#FFFFFF" fill-rule="nonzero"></path>
            <path d="M47.0685993,34.2268024 C46.7961897,34.2268024 46.5751783,34.4478138 46.5751783,34.7202235 C46.5751783,34.9926329 46.7961897,35.2136445 47.0685993,35.2136445 C47.3410088,35.2136445 47.5620204,34.9926329 47.5620204,34.7202235 C47.5620204,34.4478138 47.3410088,34.2268024 47.0685993,34.2268024" id="Path" fill="#FFFFFF" fill-rule="nonzero"></path>
            <g id="Clipped" transform="translate(0.000000, 5.921053)">
                <mask id="mask-6" fill="white">
                    <use xlink:href="#path-5"></use>
                </mask>
                <g id="Path"></g>
                <path d="M34.5651728,11.2638774 C34.3827096,12.1479235 34.1479921,13.0071272 33.6091695,13.7626781 C32.674582,15.0741844 31.4538789,16.0730195 30.1372329,16.9673452 C29.888809,17.136102 29.8005757,17.3108553 29.8048588,17.6003974 C29.8408375,19.8396382 29.8554002,22.0788789 29.898232,24.3172629 C29.9042285,24.6453535 29.8048588,24.7584294 29.4879044,24.8269601 C25.9165982,25.5979303 22.3478618,25.4908511 18.7731292,24.8552289 C18.4681675,24.8004044 18.3944969,24.6856154 18.3944969,24.3917899 C18.3919272,21.9632333 18.3730811,19.5355331 18.3525219,17.1078331 C18.3516654,16.9793379 18.3259662,16.8302838 18.2582923,16.7249178 C17.3905224,15.3834294 16.9510691,13.9048794 16.8208607,12.3261033 C16.7797423,11.8301123 16.7626096,11.330695 16.7317708,10.7978686 C16.0207649,10.9186539 15.3311746,11.0351561 14.6167421,11.1567982 C14.6330182,11.2964296 14.645011,11.4086487 14.6604305,11.520011 C14.8985746,13.3009526 14.993661,15.0836075 14.6861294,16.8662623 C14.5113761,17.8745202 14.2269737,18.8493695 13.5870684,19.6734513 C12.9206072,20.5326548 12.0639735,20.9935239 10.9477796,20.7219711 C10.5777138,20.6320243 10.2350603,20.4349987 9.85728487,20.2773781 C9.27220395,20.8453263 8.56291118,20.9841009 7.79365417,20.6448739 C7.47327303,20.5035294 7.18373092,20.2799478 6.89932851,20.0675026 C6.6937364,19.9141654 6.52069627,19.7171395 6.33823333,19.5440996 C5.67691206,19.9604235 5.22289605,19.96385 4.60355,19.5209704 C4.34227675,19.3333675 4.10070592,19.1055031 3.88997412,18.8622191 C3.23036601,18.1023849 2.76864035,17.2209088 2.38743838,16.298314 C2.12188202,15.6541254 1.89059079,14.9953741 1.64559342,14.3443325 C1.02539079,14.4359923 0.857490351,14.3588952 0.559382018,13.7986568 C0.222724781,13.1690309 0.0676741228,12.4862939 0.0531114035,11.7787145 C0.0402618421,11.180784 0.032552193,10.5614377 0.850637281,10.4783443 C0.811232237,9.94551798 0.758977632,9.44610066 0.741844956,8.94496974 C0.724712281,8.43270285 0.722142325,7.91872259 0.748698026,7.40731228 C0.790673026,6.57980395 0.90631864,5.76257544 1.23440921,4.98989167 C1.47255351,4.42879649 1.88545088,4.02532215 2.48937785,3.96964079 C2.97508904,3.92509605 3.12414342,3.68266864 3.28347719,3.28519057 C3.78375132,2.03621842 4.48105132,1.60104846 5.71803048,1.69013838 C5.80883377,1.54536732 5.89963684,1.3928864 5.99729298,1.24554561 C6.86163662,-0.0539679825 8.1457307,-0.347793421 9.49235877,0.453159211 C10.3224371,0.947436842 10.9383566,1.66015614 11.4814625,2.43969298 C12.5582511,3.98591689 13.2598342,5.70518092 13.8003702,7.49725877 C13.8474851,7.65230943 13.9005963,7.80564693 13.9477112,7.94784825 C14.9499726,7.78680088 15.9153989,7.63603333 16.8765421,7.46556338 C16.9579221,7.45100044 17.0572917,7.30622939 17.0752811,7.20857325 C17.2354715,6.31510417 17.3725329,5.41735197 17.5318669,4.52388289 C17.6809211,3.68695175 18.0492737,2.97423246 18.8108211,2.52792632 C19.4884184,2.13044825 20.1908581,2.07733684 20.8924412,2.46967522 C21.4826618,1.51709846 23.0717175,0.982558991 24.3489583,1.75695592 C25.528543,0.579941009 27.1475809,0.560238596 28.6192776,1.68585526 C28.9096765,1.58391579 29.1760897,1.44085789 29.4587789,1.39888289 C30.6435033,1.21984649 31.5823739,1.63702719 32.2582579,2.62472588 C32.6788651,3.23978904 32.9050164,3.93023575 33.0703469,4.65066469 C33.1131785,4.83569759 33.2253976,5.06613202 33.3778783,5.15522193 C34.3681469,5.73430658 34.9635075,6.51812632 34.8127399,7.73454627 C35.2436268,7.81592654 35.6419614,7.89045373 36.0540022,7.96840746 C36.0916941,7.84933531 36.1242463,7.75167895 36.1533717,7.65230943 C36.6416531,6.0127125 37.259286,4.42708333 38.1716009,2.96823596 C38.7481154,2.04649803 39.4077235,1.19671732 40.3183252,0.57223136 C41.7283443,-0.394051535 43.1289406,-0.112219079 44.054105,1.31921601 C44.1380553,1.44856776 44.2202921,1.57963268 44.2991022,1.70298794 C45.2456827,1.53166118 45.9241366,1.91115 46.4012816,2.66755746 C46.6000206,2.98279868 46.7345121,3.34001513 46.87757,3.68695175 C46.9366776,3.82915307 46.9949287,3.89768377 47.1628289,3.90625 C47.9963338,3.94993838 48.5557156,4.37054561 48.8358346,5.15607873 C49.324116,6.52840592 49.3181195,7.94870482 49.2410226,9.37414342 C49.2204634,9.73821272 49.1784882,10.1005689 49.1467928,10.4586417 C49.8226768,10.7027825 49.9520285,10.8809623 49.9563723,11.6125274 C49.9597382,12.3226768 49.8175371,13.005414 49.5185719,13.6513158 C49.2144669,14.3083539 49.0525632,14.4000136 48.3329908,14.3588952 C48.3064351,14.4325658 48.2815928,14.5113761 48.2516105,14.5876164 C47.9380825,15.3851425 47.6571066,16.1980879 47.3016037,16.976768 C46.8964158,17.8650974 46.388432,18.7003154 45.6320246,19.3496436 C44.9390077,19.9432908 44.4413035,19.9895491 43.6600535,19.5578057 C41.946786,21.0620546 41.4533649,21.1588542 40.087034,20.2593886 C39.9979441,20.3125 39.9088542,20.3681811 39.8171943,20.4195792 C38.6504592,21.0689077 37.4691612,20.9070039 36.6108143,19.8850397 C36.2287555,19.4301671 35.9237939,18.8767818 35.7122053,18.3199697 C35.0808662,16.6615268 35.062877,14.9225603 35.1742395,13.1801671 C35.2170711,12.5137061 35.303591,11.8506715 35.3729785,11.1576548 C35.1245546,11.1148232 34.8812706,11.0728482 34.6080044,11.0257333 C34.5874452,11.1422355 34.5780224,11.2030566 34.5651728,11.2638774 Z M21.2428044,7.24198202 C21.166564,7.05951886 21.1091695,6.86934627 21.0474919,6.68088684 C20.9695382,6.44359912 20.8256237,6.36564561 20.5840531,6.4881443 C20.712548,6.91217785 20.8359033,7.33621162 20.9738213,7.75596228 C21.000377,7.8390557 21.0809004,7.90587303 21.1374384,7.97954364 C20.8761651,7.95213136 20.5909061,7.98297018 20.3596149,7.88617061 C19.8404947,7.66944211 19.5578057,7.19915022 19.2896794,6.73228487 C19.2220053,6.61492588 19.1509046,6.50013706 19.0515351,6.4033375 C19.3333675,7.06808531 19.5895011,7.75681886 20.2465393,8.16714649 C20.6037555,8.38987105 20.9926673,8.34875263 21.3635897,8.17142961 C21.6128702,8.05150088 21.7165228,7.84162544 21.6582717,7.5752125 C21.3918586,6.3605057 21.1185925,5.14751228 20.8453263,3.93366228 C20.8247671,3.84285921 20.7862184,3.75548246 20.7536664,3.66724912 C20.4555579,2.87486294 19.9689899,2.69154342 19.2228618,3.08987807 C18.8065379,3.31260285 18.4887268,3.72207368 18.3825042,4.1281182 C18.5795298,3.95250833 18.7894053,3.68695175 19.0643846,3.54389386 C19.3333675,3.40340592 19.6683114,3.38712982 19.9741298,3.31688596 C19.9826961,3.34858136 19.9921191,3.38027675 20.0006853,3.41282895 C19.8327851,3.48564276 19.6606018,3.54989035 19.4995546,3.63384035 C19.3453605,3.71436404 19.2023026,3.81630351 19.0763776,3.96535768 C19.2699768,3.93109232 19.4635759,3.89682697 19.6571752,3.86256162 C19.2699768,4.16837982 19.3702029,4.5084636 19.5569491,4.85026053 C19.7274193,5.1629318 19.8996026,5.47388991 20.0923452,5.77285504 C20.1643024,5.88507412 20.2936542,5.96131447 20.4067298,6.06239715 C20.3090735,6.19003553 19.973273,6.24743004 20.1360336,6.58837039 C20.3262061,6.23715044 20.567777,6.09323596 20.8658855,6.14377741 C20.9275632,6.15405702 20.9900974,6.17033311 21.0457785,6.19860197 C21.4124178,6.38620482 21.6257197,7.5914886 21.3396039,7.88188728 C21.2864925,7.93499868 21.1974026,7.95470132 21.1254456,7.98896667 C21.3310377,7.76624167 21.3593066,7.51953114 21.2428044,7.24198202 Z M32.5323807,8.38558794 C32.2882401,8.60060307 32.0261103,8.64943114 31.7588406,8.60659956 C31.5258362,8.56976425 31.3930579,8.66399386 31.3125342,8.85331009 C31.1891789,9.14113904 31.0718202,9.43239452 30.9715941,9.72793311 C30.8448123,10.0979989 30.9733075,10.4278029 31.1754728,10.7353344 C31.2842654,10.9015215 31.4050509,11.0608553 31.5618147,11.2827235 C30.8807908,11.0137404 30.5030154,10.5520149 30.279434,9.93952171 C30.2494518,9.94551798 30.2194697,9.95151447 30.1894875,9.95751096 C30.2246094,10.357559 30.2605882,10.7584636 30.2965667,11.1662213 C30.0198739,10.8706825 29.9522,10.4963336 29.942777,10.1005689 C29.9153647,10.0945724 29.8879524,10.0894325 29.8605401,10.0834362 C29.7860129,10.3190105 29.7123425,10.5545846 29.6172561,10.8569763 C29.5641447,10.6556675 29.5238829,10.4980469 29.4947575,10.3866844 C29.075007,10.4106702 28.6509732,10.4346559 28.1678318,10.4620682 C27.0781936,12.0511239 26.3046533,12.3775013 25.041975,11.7084704 C24.3652344,12.1744792 24.0474232,12.878632 23.7938596,13.6290434 C23.7424616,12.8417969 24.0217243,12.1616296 24.4474713,11.5885417 C24.0354305,11.5885417 23.6139667,11.6031044 23.194216,11.5842586 C22.7239241,11.5645559 22.3504318,11.3298382 22.0728825,10.9657689 C21.9349645,10.7867325 21.8038996,10.7370478 21.5965941,10.8141447 C20.6140351,11.1790706 19.6280496,11.5337171 18.6489173,11.9054961 C18.5735336,11.9337651 18.474164,12.0862458 18.4938667,12.1462103 C18.9435993,13.5459498 19.5783649,14.831757 20.8804482,15.6506991 C21.7542147,16.1998013 22.7350603,16.3625616 23.7518846,16.3068805 C23.978036,16.2948877 24.1262336,16.3471423 24.2710048,16.5099026 C24.3857936,16.640111 24.5339912,16.7403373 24.6976083,16.8337103 C24.2924206,16.3899739 24.0045917,15.900836 23.9703263,15.2600741 C24.6573465,16.2297833 25.6493285,16.3282963 26.6627263,16.2417763 C28.6167079,16.0738761 30.2837171,15.2232388 31.8410774,14.0625 C33.2339638,13.0259732 33.8610197,11.6442228 33.993798,9.9866364 C34.0657553,9.08031798 34.0837445,8.16971623 34.1240064,7.26168443 C34.1274329,7.17088136 34.1111568,7.08007807 34.0983075,6.92674079 C33.9989377,7.05523575 33.9355469,7.13747259 33.8721561,7.21970943 C34.1394259,6.50699013 33.6862664,6.18575241 33.1782827,5.87650768 C32.9649809,5.74629934 32.7808046,5.5689761 32.5872053,5.40964232 C32.325932,5.19634035 32.0543792,5.00873772 31.6783169,4.98218202 C31.6551877,5.1312364 31.6423384,5.26315789 31.6140693,5.39250965 C31.4975671,5.92019605 31.0975193,6.19003553 30.5886787,6.02727522 C30.2648713,5.92362259 29.942777,5.76600197 29.6686542,5.56640614 C29.1461075,5.18349101 29.0304618,4.61725614 29.3071546,4.03046184 C29.3945314,3.84457237 29.5118901,3.67238904 29.6163996,3.49335263 C29.2703193,3.38113355 29.0184691,3.52162149 28.8771246,3.90881996 C28.6989447,4.39538794 28.7571958,4.88366908 28.9190996,5.35567434 C29.3379934,6.57466425 30.2117599,7.36705044 31.3853482,7.83819912 C31.8984719,8.04464781 32.4398645,7.94185175 32.9744039,7.80650351 C32.779948,8.08662281 32.5760691,8.1877057 31.9387336,8.38558794 C32.1220533,8.38558794 32.3062294,8.38558794 32.5323807,8.38558794 Z M7.35505768,19.8833265 C8.28193531,20.6217447 9.00236447,20.555784 9.82130614,19.6683114 C9.9609375,19.7599713 10.1039954,19.8584842 10.2504798,19.9510004 C11.3032827,20.6148917 12.3098274,20.4786868 13.0259732,19.573225 C13.0568121,19.5346765 13.0807978,19.4901316 13.1356224,19.4053248 C12.2635691,19.6434691 11.676775,19.2151522 11.1490886,18.6771862 C10.2607594,17.770011 9.68081842,16.6649535 9.20110351,15.5119243 C7.85790175,12.2807018 7.18544408,8.91841425 7.30708618,5.41392544 C7.337925,4.5341625 7.44414759,3.65696952 7.76367193,2.8294614 C7.9075864,2.45511228 8.1080386,2.08504649 8.35560592,1.76894868 C8.72738487,1.29523026 9.23451206,1.19414737 9.80246031,1.39117325 C9.86756447,1.41430241 9.93438202,1.43314825 10.0106224,1.42715175 C9.37071689,0.828364912 8.68027018,0.302391667 7.73454649,0.476288377 C6.78196974,0.651898246 6.34936952,1.42029868 5.95189145,2.20754518 C5.90648991,2.20497544 5.86194496,2.21268509 5.82682303,2.19897895 C5.05071272,1.88802083 4.32514386,2.25037697 3.93708882,2.95281667 C3.70065789,3.37942018 3.53532763,3.84542895 3.3211693,4.33114035 C3.23893246,4.33114035 3.10529737,4.33028377 2.97166272,4.33114035 C2.26922281,4.33713684 1.78179825,4.63267544 1.58819912,5.2999932 C1.40316623,5.93818531 1.23612259,6.60207654 1.20442719,7.26168443 C1.04166667,10.7002125 1.71326754,13.9836897 3.23464912,17.0778509 C3.52247807,17.6629318 3.94651184,18.1837651 4.33285373,18.7165912 C4.46391864,18.8981976 4.6609443,19.0412555 4.84769057,19.1740338 C5.3582443,19.5355331 5.74801272,19.5021246 6.20288509,19.0763774 C6.25599649,19.0266928 6.29882807,18.9667283 6.33309342,18.9264667 C6.69716294,19.2708333 7.0046943,19.6040638 7.35505768,19.8833265 Z M43.6754728,18.9538789 C44.2185787,19.5715118 44.7454086,19.5989241 45.4606978,18.9307498 C46.2590803,18.1846217 46.7602112,17.2371846 47.172252,16.2486294 C48.3424136,13.4405838 48.9403441,10.5168928 48.8109923,7.47155965 C48.7818669,6.77939956 48.636239,6.0812432 48.4503496,5.41135548 C48.2267682,4.60526316 47.7393434,4.3131511 46.8964158,4.33371031 C46.8133224,4.33542346 46.7302289,4.33371031 46.6557018,4.33371031 C46.5135007,3.96278772 46.397855,3.59272193 46.2325248,3.24492873 C45.9798178,2.71038925 45.6337377,2.23495746 45.0023987,2.13044825 C44.7034333,2.08076338 44.3847658,2.15272061 44.0378289,2.17156667 C43.6180785,1.38603333 43.1640625,0.539679386 42.0752811,0.454015789 C41.1818121,0.38377193 40.53848,0.902035307 39.8668792,1.50167895 C39.9645355,1.48454627 39.9919478,1.48454627 40.0150768,1.47426667 C40.7757675,1.13675307 41.376268,1.30722325 41.8405634,1.99852654 C42.2217654,2.56647478 42.4033717,3.21066338 42.5198739,3.87198465 C42.8556743,5.77028509 42.7434553,7.66601557 42.4564831,9.55660636 C42.0992667,11.9037829 41.4807772,14.177289 40.4314009,16.31973 C39.9962309,17.2063461 39.5028099,18.062123 38.777241,18.74743 C38.5082579,19.0018504 38.185307,19.2288583 37.84608,19.3710594 C37.5745272,19.4858485 37.2412967,19.4532963 36.9491846,19.4841351 C37.3869243,20.5215186 38.6513158,20.619175 40.1821204,19.6700246 C40.2480811,19.741982 40.3174684,19.8173658 40.3868559,19.8927496 C40.8605743,20.4024465 41.4636445,20.565207 42.0667147,20.2234101 C42.5327235,19.9595669 42.9250618,19.5672285 43.3430991,19.2237184 C43.4467518,19.1389118 43.5212789,19.0198397 43.6060855,18.9196136 C43.6394943,18.9358895 43.6626235,18.939316 43.6754728,18.9538789 Z M28.7443463,24.1442228 C29.0398849,24.0799754 29.1152686,23.9583333 29.1135838,23.6627947 C29.1007059,21.5811746 29.1092724,19.4986978 29.1109855,17.4170779 C29.1109855,17.3571136 29.1015625,17.2971491 29.0929963,17.2003496 C27.7292353,17.7614447 26.3123629,17.8719504 24.7892682,17.8668105 C24.7892682,18.9213268 24.7892682,19.9587103 24.7892682,20.9960939 C24.7524329,20.9960939 24.7164544,20.9960939 24.6796191,20.9960939 C24.6273645,20.0726425 24.5614035,19.1491912 24.5305647,18.2248836 C24.5211417,17.924205 24.4260555,17.8136993 24.1296601,17.8445382 C23.9557636,17.863384 23.7775838,17.8479647 23.5599987,17.8479647 C23.5240202,19.5903577 23.4880414,21.3224713 23.4512061,23.0554412 C23.4366434,23.056298 23.4220807,23.0580112 23.4083746,23.058868 C23.3209978,22.3290158 23.2327645,21.6000206 23.1479579,20.8701686 C23.0357388,19.9141654 22.9243763,18.9590186 22.8172971,18.0030154 C22.7975947,17.8291186 22.7530496,17.7006237 22.5388912,17.7083333 C22.457511,17.7117599 22.3744175,17.6783511 22.2913241,17.6655018 C21.6214364,17.5584224 21.592311,17.5584224 21.5837445,18.2642886 C21.5606154,20.0006853 21.5674684,21.7379386 21.5623287,23.4743353 C21.5614721,23.744175 21.5623287,24.0148711 21.5623287,24.3206895 C24.0003083,24.5151452 26.3791805,24.6624864 28.7443463,24.1442228 Z M25.9894121,9.00407763 C26.0168243,9.56945592 26.0442366,10.1177015 26.0733623,10.6950726 C25.8797629,10.6779399 25.7375618,10.6659471 25.5962171,10.6530976 C25.5859375,10.6762268 25.5756579,10.7002125 25.5653783,10.7233417 C25.7881031,10.822711 26.0108279,10.9229373 26.2335526,11.0223068 C26.2326961,11.0368695 26.2309829,11.0514322 26.2301261,11.0659952 C26.0305305,11.052289 25.8309349,11.0385829 25.6321958,11.0257333 C25.6184897,11.0480057 25.6047836,11.0702783 25.5902206,11.0934075 C25.7675439,11.1842105 25.9354441,11.3178454 26.1239035,11.3598204 C26.6867118,11.4840325 27.2983485,11.1970601 27.5604785,10.6830798 C27.8020491,10.2085046 27.9202645,9.72193662 27.7129592,9.17883092 C27.6007401,8.88500548 27.5579086,8.53806886 27.5836075,8.22368421 C27.6924,6.90189825 27.8354579,5.58268224 27.9742325,4.26346623 C28.0136377,3.88911732 28.0693189,3.51648158 28.1387061,3.14727237 C28.1798246,2.92540439 28.2637748,2.71124583 28.3400151,2.45511228 C27.9956482,2.00880614 27.5484855,1.65158991 26.9060101,1.62931754 C26.5496504,1.61646798 26.1924342,1.61732456 25.8369311,1.6310307 C25.3520765,1.64901996 25.0702441,1.953125 24.8655086,2.37116228 C25.3726357,1.78265482 25.9979785,1.65587303 26.7158375,1.86746162 C26.2635349,1.93599232 25.727282,1.79207785 25.5388228,2.34032346 C25.8369311,2.34032346 26.1992873,2.34032346 26.5941956,2.34032346 C26.5470807,2.37715877 26.532518,2.3968614 26.5153851,2.40114452 C25.6870204,2.60245351 25.6253428,2.49965746 25.5859375,3.49078268 C25.5328263,4.82627456 25.5756579,6.16605 25.5807978,7.50325526 C25.5816544,7.69085789 25.6005004,7.87760417 25.6124932,8.08662281 C25.8857594,8.11060855 26.1496026,8.1345943 26.4228689,8.15858004 C26.0665092,8.30249452 25.7341351,8.43612939 25.4009046,8.57147763 C25.4111842,8.57918728 25.4206072,8.58775351 25.4308868,8.59631996 C25.8480675,8.56034123 26.2669614,8.48924079 26.6841421,8.49780702 C27.1715667,8.50723004 27.3180511,8.65714079 27.3780154,9.13171601 C27.4208471,9.47265614 27.4474026,9.81959298 27.4302702,10.1613899 C27.409711,10.5794272 27.186986,10.8072917 26.7466763,10.9118009 C27.1647136,10.7293379 27.1912693,10.3755482 27.1724232,10.0046259 C27.1612871,9.79560724 27.1510075,9.5865886 27.1330182,9.37842654 C27.0850467,8.83960395 27.0242257,8.7727864 26.4682704,8.80448202 C26.1684485,8.82161447 25.8720533,8.90470811 25.5739447,8.9578193 C25.5799412,8.99208465 25.5867943,9.02635 25.5936474,9.06147193 C25.7135759,9.04348268 25.8335048,9.02635 25.9894121,9.00407763 Z M23.0734307,2.46796184 C22.6134184,2.65727807 22.1465531,2.84916404 21.6796875,3.0401932 C21.6916805,3.09244781 21.7036732,3.14470263 21.7165228,3.19610066 C22.0351906,3.19610066 22.3547149,3.19610066 22.7239241,3.19610066 C22.3470053,3.35629123 22.0266241,3.49249583 21.7053866,3.62870066 C21.7105263,3.65525636 21.7156662,3.68095526 21.7208059,3.70751096 C21.8038996,3.71522061 21.886993,3.72293026 21.9735129,3.73149671 C22.214227,5.16121842 22.4540844,6.59179693 22.6973684,8.03779474 C22.8952509,8.03779474 23.0700042,8.03779474 23.3329908,8.03779474 C22.9663515,8.24766996 22.6374042,8.38644474 22.4883498,8.79248904 C23.2601768,8.22282763 23.936061,8.18513575 24.260725,8.65971075 C24.6881853,9.28505351 24.6564899,10.2658991 24.1682088,10.549445 C24.5305647,10.1322643 24.3206895,9.70651732 24.2059004,9.29190658 C24.0080182,8.57490395 23.407518,8.43270285 22.8447094,8.95610614 C22.8986774,9.00493421 22.9851974,9.04433947 22.9997601,9.10259035 C23.0520149,9.31503553 23.0751439,9.53433377 23.1205456,9.74849232 C23.1633772,9.95065789 23.2199151,10.1493969 23.2764529,10.3738351 C23.1676605,10.3738351 23.0802838,10.3738351 22.9937638,10.3738351 C22.9869107,10.3935375 22.9792009,10.4132401 22.9723478,10.4337993 C23.1291118,10.5160362 23.2867325,10.5991296 23.4443531,10.6822232 C23.4409265,10.6950726 23.4375,10.7079221 23.4340735,10.7207717 C23.257607,10.6839364 23.0802838,10.6471011 22.9012474,10.6102658 C22.7975947,10.9529193 23.0580114,11.0677083 23.2978689,11.1122533 C23.7604509,11.1987732 24.2024741,11.0856976 24.5716831,10.790159 C24.810684,10.5999864 24.862082,10.3172971 24.8406662,10.0209018 C24.7070314,8.18427895 24.5708265,6.34851294 24.4466147,4.51189013 C24.4132059,4.02103904 24.4192024,3.52847456 24.4012132,3.03676667 C24.3977864,2.93654057 24.3977864,2.81318531 24.3421053,2.74122807 C24.0045917,2.29834846 23.5582855,2.04649803 22.9869107,2.08247675 C22.3941202,2.12016864 21.8647204,2.29577851 21.5374864,2.84745066 C22.0326206,2.62472588 22.5346081,2.44140614 23.0734307,2.46796184 Z M19.0018504,7.79279737 C18.9281798,7.72940658 18.7979715,7.69257127 18.7003154,7.70285088 C16.3882607,7.94356491 14.1053318,8.35303596 11.8369656,8.85159671 C11.5953947,8.90470811 11.4934553,9.01778377 11.4703263,9.24050855 C11.4060787,9.85128838 11.5208675,10.4243763 11.8198329,10.9631991 C11.9440447,11.1867805 12.0982388,11.2493147 12.3603689,11.1987732 C13.9776934,10.8826754 15.5941612,10.5545846 17.2200522,10.2924548 C18.3910706,10.1039954 19.5775083,10.0106224 20.757093,9.87527412 C20.8710252,9.86242456 20.9858143,9.85642807 21.1100261,9.84614868 C21.1460048,9.61485746 21.0440654,9.56602939 20.8453263,9.58316206 C18.4458952,9.79046732 16.0713061,10.1631031 13.71642,10.6625206 C13.3052357,10.7498971 12.8923384,10.8261377 12.4845807,10.9263638 C12.2387268,10.9863281 12.0716831,10.9229373 11.9774535,10.6933594 C11.8712309,10.4372259 11.7770011,10.1768092 11.6990474,9.97550022 C11.9320518,9.97550022 12.1282211,10.0054825 12.3123974,9.97121711 C13.9631305,9.66197237 15.6078673,9.3167489 17.2628838,9.03491645 C18.1409333,8.88500548 19.0369724,8.83789057 19.9253015,8.74451754 C19.9818395,8.73852105 20.0392338,8.73338136 20.0358075,8.73423794 C19.7025768,8.42756316 19.3590667,8.10204211 19.0018504,7.79279737 Z M34.8153099,9.21652281 C34.819593,9.28762325 34.9146794,9.39984232 34.9849232,9.41526184 C35.949493,9.62171053 36.9157759,9.82044956 37.8846285,10.0029125 C38.0037007,10.0251851 38.1424754,9.94380482 38.293243,9.90439956 C38.2624042,10.0406044 38.2384184,10.1939419 38.1913035,10.3395697 C38.0011307,10.928077 37.8829154,10.9948945 37.2884114,10.8715393 C36.5174412,10.7122053 35.7473274,10.5485882 34.9755004,10.3978206 C34.8701344,10.3772614 34.7519189,10.4252329 34.6397,10.441509 C34.6422697,10.4843408 34.6456963,10.5271724 34.6482662,10.5691474 C35.0954289,10.6625206 35.5434485,10.7550371 35.9906114,10.8475535 C36.5765489,10.9691954 37.160773,11.0985471 37.7501371,11.2013432 C37.8555031,11.220189 38.0302564,11.1602248 38.0885075,11.0779879 C38.4945518,10.5049 38.6221904,9.85728487 38.5125412,9.17112105 C38.4954086,9.06061535 38.3566338,8.90556469 38.2495546,8.88243553 C37.1624864,8.64771798 36.0702783,8.43612939 34.9797836,8.2194011 C34.9395217,8.21169123 34.8975467,8.21426118 34.8076,8.20826491 C34.8076,8.551775 34.7973206,8.88500548 34.8153099,9.21652281 Z M31.2697026,3.30060987 C31.2979715,3.28947368 31.3262404,3.2774807 31.3545094,3.26634452 C31.5258362,3.70151447 31.6980195,4.13668443 31.8899055,4.62410921 C31.9807088,4.65409123 32.1494656,4.70891579 32.3182224,4.76374035 C32.4064557,3.26634452 30.9707375,1.83833596 29.6026934,2.08162018 C29.3619792,2.12445175 29.1392544,2.26922281 28.9362322,2.43540987 C29.1298316,2.39429145 29.3242873,2.35231623 29.5178866,2.31034123 C29.0167557,2.73780154 28.950795,2.84745066 28.9927702,3.23721908 C29.6849303,3.05561272 30.4233485,3.22865263 31.3707855,4.30629803 C31.3373768,3.97049759 31.3031114,3.63555373 31.2697026,3.30060987 Z M36.148232,11.3229851 C36.0934075,11.7547285 36.0291599,12.1727658 35.988898,12.5942298 C35.8449836,14.1181811 35.7773096,15.6421327 36.1508018,17.1463816 C36.2330386,17.4761855 36.3632469,17.8059895 36.5311474,18.1023849 C36.9337651,18.8151042 37.5822368,18.9376029 38.2127193,18.4090596 C38.5125412,18.1572094 38.7883772,17.8505346 38.9956827,17.5190173 C39.3751715,16.911664 39.6946958,16.2674754 40.0390625,15.6378496 C40.0082237,15.6215735 39.9773849,15.6044408 39.9465461,15.5873081 C39.8274741,15.816886 39.7289612,16.06017 39.5850467,16.2726151 C39.1927083,16.8499864 38.8337789,17.463336 38.3643434,17.9738899 C37.6302083,18.7714158 36.974027,18.6077987 36.6150974,17.5866912 C36.2553112,16.5621575 36.2261855,15.4913651 36.2750138,14.4248561 C36.3152754,13.5390967 36.4266379,12.656764 36.5071614,11.772718 C36.5174412,11.6596423 36.5302906,11.5474232 36.5448535,11.4077919 C36.4000822,11.3769531 36.2989996,11.3555373 36.148232,11.3229851 Z M13.4619998,11.4060787 C13.524534,11.9431882 13.5947781,12.4691612 13.6444627,12.995991 C13.7729579,14.3331963 13.8294956,15.6712583 13.5468066,16.9947575 C13.4697094,17.3571136 13.3360746,17.7203263 13.1570382,18.0449904 C12.8983346,18.516139 12.4691612,18.6257882 12.0442708,18.2951274 C11.6527893,17.9918792 11.3049961,17.6149603 11.0043175,17.2200522 C10.6839364,16.7985882 10.4423658,16.3180167 10.1673864,15.8648575 C10.1613899,15.8742805 10.1408307,15.8948397 10.1451138,15.9042627 C10.50233,16.7574697 10.9203673,17.5746985 11.583402,18.2394463 C11.7290296,18.3850741 11.9080662,18.5075726 12.0913857,18.6043724 C12.5111364,18.8245272 12.942023,18.7782689 13.2289954,18.4056333 C13.4714228,18.0895353 13.6753015,17.7168996 13.7926605,17.337411 C14.1755757,16.099575 14.1627263,14.8189077 14.0899123,13.5425232 C14.0487939,12.8143846 13.9528509,12.0888158 13.8774671,11.3221285 C13.7078537,11.3563939 13.5973478,11.3786664 13.4619998,11.4060787 Z M41.7626096,3.34087171 C41.6863693,3.07274539 41.5724371,2.80633224 41.4259526,2.56904474 C41.081586,2.00966272 40.4913651,1.85546886 39.9705318,2.25294693 C39.5533513,2.57161447 39.1738625,2.96823596 38.8654743,3.39226974 C38.0790844,4.47419825 37.1427838,6.74856096 36.8558114,8.13202434 C36.971457,8.15772346 37.0879592,8.18427895 37.2224507,8.21426118 C37.4109101,7.63517675 37.5873768,7.06979846 37.7792627,6.50956009 C38.143332,5.44904737 38.5699355,4.41337719 39.2089844,3.48392961 C39.4428454,3.14384605 39.7255346,2.8191818 40.042489,2.5553386 C40.5247739,2.15443399 41.0224781,2.24266711 41.2871781,2.81147193 C41.5313186,3.33401864 41.7000754,3.90539342 41.808868,4.47334167 C41.9262268,5.08583465 41.9356498,5.71888706 41.9973274,6.40676404 C42.0478689,5.34111162 42.0444421,4.32857039 41.7626096,3.34087171 Z M8.32305373,3.82401316 C8.38901447,3.45309079 8.55348816,3.083025 8.74451754,2.75322105 C9.02806338,2.26065658 9.4855057,2.15015088 9.90782632,2.52621294 C10.3310033,2.9031318 10.7122053,3.35457785 11.0111706,3.83514934 C11.7855675,5.07898158 12.2421533,6.46330175 12.6601906,7.85790154 C12.6927425,7.96669408 12.7261513,8.0763432 12.7629866,8.19712851 C12.8452235,8.18856228 12.9171807,8.18599232 12.9874246,8.17314276 C13.0362529,8.16457654 13.0833675,8.14316053 13.1818805,8.11146513 C12.9582991,7.44757412 12.7604167,6.78882259 12.5154195,6.14806053 C12.0434143,4.91365132 11.5157279,3.70408443 10.6016996,2.71381579 C10.4329428,2.53135285 10.2359171,2.36173925 10.0234719,2.23410088 C9.44524408,1.8845943 8.86444627,2.01394605 8.55520154,2.61444627 C8.34361294,3.02563048 8.17913925,3.48735614 8.119175,3.94222851 C8.01209561,4.75517412 7.99924627,5.58011228 7.94699167,6.39991096 C7.95641447,6.39905439 7.96498092,6.39819759 7.97440395,6.39734101 C8.08662281,5.53899386 8.17142961,4.67550702 8.32305373,3.82401316 Z M11.0308732,7.29851974 C10.7267682,7.28652675 10.5503015,7.51182149 10.5014735,7.7542489 C10.3943943,8.29221491 10.2804618,8.84303048 10.2907417,9.38613618 C10.3087309,10.3652686 10.5477316,11.3127057 11.0086007,12.1864719 C11.1722178,12.4957169 11.3812364,12.7981086 11.6296601,13.0439625 C12.0442708,13.4542899 12.4948603,13.2881031 12.6096491,12.7133018 C12.6370614,12.5753838 12.6447711,12.4331825 12.6156456,12.2798452 C12.5394053,12.4468886 12.4751577,12.6207853 12.3843544,12.7792627 C12.2627125,12.9882811 12.0905292,13.0259732 11.9329086,12.8246643 C11.7984171,12.6533375 11.6716351,12.4674478 11.5851151,12.2695656 C11.0317298,11.0077439 10.7516105,9.68767127 10.7678866,8.30934759 C10.7695998,8.17399956 10.7858759,8.03693816 10.8150013,7.90501645 C10.907518,7.48697917 11.0779879,7.43044123 11.4257814,7.69514123 C11.4677564,7.72683662 11.5080182,7.76024539 11.5491366,7.79279737 C11.4634732,7.53752061 11.3298384,7.31051272 11.0308732,7.29851974 Z M37.7655566,13.2289954 C38.1741708,13.3711965 38.4320175,13.0439625 38.641893,12.7595601 C39.2749452,11.9029263 39.5704838,10.9092311 39.6664268,9.87013421 C39.7212513,9.27563048 39.6441544,8.66742061 39.6158855,8.0660636 C39.6107456,7.9658375 39.561061,7.86475461 39.5173726,7.770525 C39.4094368,7.54094715 39.2946478,7.29851974 38.9913996,7.29851974 C38.6872945,7.29851974 38.5416667,7.51953114 38.4123149,7.75767544 C38.4422971,7.76709846 38.4611432,7.78080461 38.4722794,7.77566469 C38.6478893,7.70285088 38.821786,7.62746711 38.9965393,7.55293991 C39.074493,7.75082237 39.2047013,7.94356491 39.2209772,8.14573048 C39.3049274,9.15912829 39.1087583,10.144257 38.8389186,11.1131099 C38.7275561,11.5140145 38.5605127,11.8994998 38.4106018,12.2884114 C38.3660568,12.404057 38.3112322,12.5256991 38.229852,12.6165022 C38.1159197,12.7424274 37.9720053,12.8417969 37.8409404,12.9531592 C37.7312912,12.8238075 37.6113625,12.7004522 37.5137061,12.5625342 C37.4571684,12.4820107 37.4357526,12.3757882 37.3980605,12.2815583 C37.3817846,12.6576206 37.3440928,13.0816544 37.7655566,13.2289954 Z M29.4484991,4.48876096 C29.4133772,4.60355 29.4964706,4.82370482 29.5975535,4.89823202 C29.9736158,5.17492456 30.3633842,5.44133772 30.7788515,5.65292632 C31.0812432,5.80712039 31.4641586,5.46275351 31.4076206,5.07041535 C31.3733553,4.82798794 31.2534265,4.55900482 31.0855263,4.38339496 C30.7488693,4.03217522 30.3539612,3.73834978 29.9110816,3.35886096 C29.7243353,3.80002741 29.5555785,4.13497127 29.4484991,4.48876096 Z M28.6047149,7.47926952 C28.6047149,8.0078125 28.6047149,8.51151316 28.6047149,9.04519605 C28.515625,9.02635 28.431675,9.00750417 28.2663447,8.97152544 C28.3725671,9.0794614 28.4368147,9.13257259 28.4864996,9.19767675 C28.5378976,9.26535088 28.5747329,9.34416118 28.6175645,9.41783158 C28.5473206,9.45638026 28.4770765,9.49578531 28.3965531,9.54033026 C28.6492599,9.72964649 28.9208127,9.69366776 29.1897958,9.58316206 C29.8339844,9.31846228 30.0918311,8.67170373 30.1346629,8.10204211 C30.1389461,8.03865132 30.0498561,7.95384452 29.984752,7.90330307 C29.8708197,7.81678311 29.7423246,7.74910921 29.6438118,7.68828816 C29.6026934,8.10461206 29.5752811,8.51493969 29.5136035,8.92012741 C29.4973274,9.02463684 29.3748287,9.11372675 29.2651796,9.18054408 C29.5812774,8.68540987 29.446786,8.17485614 29.3439899,7.68743158 C29.2591831,7.28053048 28.6518298,7.22227939 28.2166599,7.62061404 C28.3897,7.55722325 28.483073,7.52381447 28.6047149,7.47926952 Z M48.8529675,12.256716 C48.9951686,12.256716 49.1262336,12.256716 49.2924206,12.256716 C49.1202373,12.8238075 49.1467928,13.491982 48.4931811,13.8380618 C48.6593682,13.9982524 48.7647342,14.0119586 48.8949425,13.8440583 C48.9960252,13.71385 49.080832,13.5656524 49.1467928,13.4140283 C49.420059,12.782689 49.555407,12.1222246 49.513432,11.4326342 C49.4894463,11.0437226 49.4406182,10.9957511 49.0868285,10.9383566 C49.0088748,11.3752399 48.9352044,11.7932772 48.8529675,12.256716 Z M0.750411184,12.2644257 C0.872053289,12.2644257 0.995408553,12.2644257 1.14703268,12.2644257 C1.06736579,11.8035568 0.995408553,11.3838061 0.921737939,10.9580592 C0.679310526,10.9143708 0.549102193,11.0103138 0.521689912,11.2373219 C0.411184211,12.1496368 0.588507456,13.0037007 1.06565241,13.7918037 C1.1881511,13.9939693 1.3509114,14.0051055 1.56592654,13.8449149 C1.10848421,13.6615954 0.751267982,12.9300303 0.750411184,12.2644257 Z M28.1489857,7.25568816 C28.4539474,7.18715746 28.749486,7.12119649 29.053591,7.05352237 C28.8891173,6.71857873 28.7083675,6.35279605 28.515625,5.96217105 C28.3717105,6.41190373 28.6338406,6.95072632 28.1489857,7.25568816 Z" id="Shape" fill="#000000" fill-rule="nonzero" mask="url(#mask-6)"></path>
            </g>
            <path d="M31.9387336,14.3066406 C32.1220533,14.3066406 32.3062294,14.3066406 32.5323807,14.3066406 C32.2882401,14.5216557 32.0261103,14.5704838 31.7588406,14.5276522 C31.5258362,14.4908169 31.3930579,14.5850465 31.3125342,14.7743627 C31.1891789,15.0621917 31.0718202,15.3534471 30.9715941,15.6489857 C30.8448123,16.0190515 30.9733075,16.3488555 31.1754728,16.6563871 C31.2842654,16.8225741 31.4050509,16.9819079 31.5618147,17.2037761 C30.8807908,16.934793 30.5030154,16.4730675 30.279434,15.8605743 C30.2494518,15.8665706 30.2194697,15.8725671 30.1894875,15.8785636 C30.2246094,16.2786116 30.2605882,16.6795162 30.2965667,17.0872739 C30.0198739,16.7917351 29.9522,16.4173862 29.942777,16.0216215 C29.9153647,16.015625 29.8879524,16.0104851 29.8605401,16.0044888 C29.7860129,16.2400632 29.7123425,16.4756373 29.6172561,16.7780289 C29.5641447,16.5767202 29.5238829,16.4190996 29.4947575,16.3077371 C29.075007,16.3317228 28.6509732,16.3557086 28.1678318,16.3831208 C27.0781936,17.9721765 26.3046533,18.2985539 25.041975,17.629523 C24.3652344,18.0955318 24.0474232,18.7996846 23.7938596,19.5500961 C23.7424616,18.7628496 24.0217243,18.0826822 24.4474713,17.5095943 C24.0354305,17.5095943 23.6139667,17.524157 23.194216,17.5053112 C22.7239241,17.4856086 22.3504318,17.2508908 22.0728825,16.8868215 C21.9349645,16.7077851 21.8038996,16.6581004 21.5965941,16.7351974 C20.6140351,17.1001232 19.6280496,17.4547697 18.6489173,17.8265487 C18.5735336,17.8548178 18.474164,18.0072985 18.4938667,18.0672629 C18.9435993,19.4670024 19.5783649,20.7528096 20.8804482,21.5717518 C21.7542147,22.1208539 22.7350603,22.2836143 23.7518846,22.2279331 C23.978036,22.2159404 24.1262336,22.268195 24.2710048,22.4309553 C24.3857936,22.5611636 24.5339912,22.6613899 24.6976083,22.7547629 C24.2924206,22.3110265 24.0045917,21.8218886 23.9703263,21.1811268 C24.6573465,22.150836 25.6493285,22.2493489 26.6627263,22.1628289 C28.6167079,21.9949287 30.2837171,21.1442914 31.8410774,19.9835526 C33.2339638,18.9470259 33.8610197,17.5652754 33.993798,15.907689 C34.0657553,15.0013706 34.0837445,14.0907689 34.1240064,13.1827371 C34.1274329,13.091934 34.1111568,13.0011307 34.0983075,12.8477934 C33.9989377,12.9762884 33.9355469,13.0585252 33.8721561,13.1407621 C34.1394259,12.4280428 33.6862664,12.106805 33.1782827,11.7975603 C32.9649809,11.667352 32.7808046,11.4900287 32.5872053,11.330695 C32.325932,11.117393 32.0543792,10.9297904 31.6783169,10.9032346 C31.6551877,11.052289 31.6423384,11.1842105 31.6140693,11.3135623 C31.4975671,11.8412487 31.0975193,12.1110882 30.5886787,11.9483279 C30.2648713,11.8446752 29.942777,11.6870546 29.6686542,11.4874588 C29.1461075,11.1045436 29.0304618,10.5383088 29.3071546,9.95151447 C29.3945314,9.765625 29.5118901,9.59344167 29.6163996,9.41440526 C29.2703193,9.30218618 29.0184691,9.44267412 28.8771246,9.82987259 C28.6989447,10.3164406 28.7571958,10.8047217 28.9190996,11.276727 C29.3379934,12.4957169 30.2117599,13.2881031 31.3853482,13.7592518 C31.8984719,13.9657004 32.4398645,13.8629044 32.9744039,13.7275561 C32.7790912,14.0076754 32.5752125,14.1096149 31.9387336,14.3066406 Z" id="Path" fill="#FFFFFF" fill-rule="nonzero"></path>
            <path d="M6.20288509,24.9965735 C5.74801272,25.4231772 5.3582443,25.4565857 4.84769057,25.0942298 C4.6609443,24.9623081 4.46477522,24.8192502 4.33285373,24.6376439 C3.94651184,24.1048178 3.52247807,23.5839844 3.2355057,22.9989035 C1.71326754,19.9047423 1.04166667,16.6212651 1.20528377,13.1827371 C1.23612259,12.5231292 1.40316623,11.8592379 1.58819912,11.2210458 C1.78179825,10.5537281 2.26922281,10.2581895 2.97166272,10.252193 C3.10529737,10.2513364 3.23893246,10.252193 3.3211693,10.252193 C3.53532763,9.76648158 3.70065789,9.30047281 3.93708882,8.8738693 C4.32514386,8.17142961 5.05071272,7.80907346 5.82682303,8.12003158 C5.86194496,8.13373772 5.90648991,8.12602807 5.95189145,8.12859781 C6.34936952,7.34135132 6.78196974,6.57295088 7.73540307,6.39734101 C8.68027018,6.2234443 9.37071689,6.74941754 10.0106224,7.34820439 C9.93438202,7.35420088 9.86756447,7.33535504 9.80246031,7.31222588 C9.23451206,7.1152 8.72738487,7.21628289 8.35560592,7.69085789 C8.1080386,8.00609912 7.9075864,8.37616491 7.76367193,8.75051404 C7.44414759,9.57802215 7.337925,10.4552151 7.30708618,11.3358346 C7.18544408,14.8403235 7.85790175,18.2017544 9.20110351,21.432977 C9.68081842,22.5860061 10.2607594,23.6910636 11.1490886,24.5982388 C11.676775,25.1370614 12.2635691,25.5645217 13.1356224,25.3263774 C13.0807978,25.4120408 13.0568121,25.4557292 13.0259732,25.4942776 C12.3098274,26.3997395 11.3041393,26.5368009 10.2504798,25.8720531 C10.1039954,25.7795368 9.96008092,25.6810239 9.82130614,25.589364 C9.00236447,26.4768366 8.28193531,26.5427974 7.35505768,25.8052357 C7.0046943,25.5251164 6.69716294,25.191886 6.33309342,24.8475193 C6.29882807,24.8877809 6.25599649,24.9477454 6.20288509,24.9965735 Z M4.0861432,11.676775 C4.44935592,11.5534197 4.78686952,11.8258292 4.78001645,12.2070311 C4.71833882,15.4485333 5.40107588,18.560684 6.44702588,21.6077303 C6.52497939,21.8338816 6.46844167,21.9777961 6.28683531,22.0831621 C5.92533596,22.2930373 5.55612675,22.3367257 5.18263443,22.073739 C5.17492456,22.1097175 5.15522215,22.1439829 5.16550175,22.1628289 C5.73687632,23.1993557 6.2928318,24.2530154 7.13832939,25.0993695 C7.45528377,25.4171807 7.854475,25.6861636 8.26565921,25.8703399 C8.74623092,26.0870682 9.19767675,25.8908991 9.57373904,25.4300303 C9.23365548,25.0531114 8.88586228,24.6796189 8.55091842,24.2949904 C7.48954912,23.0785704 6.80938202,21.6616982 6.39562785,20.1171875 C5.73088004,17.6380895 5.16464518,15.1418586 5.20662018,12.5505414 C5.22717939,11.2981428 5.38565658,10.06973 5.82682303,8.89014518 C5.88935724,8.72310175 5.85337851,8.6468614 5.69747127,8.5774739 C5.24088553,8.37530833 4.71748224,8.52350614 4.42793991,8.96981228 C4.05016447,9.55232325 3.90368026,10.2187842 3.77518509,10.8869586 C3.70408443,11.2561678 3.65354298,11.6288035 3.59443531,11.9954428 C3.76319211,11.8823671 3.91053333,11.7367393 4.0861432,11.676775 Z M3.5687364,23.0537281 C3.9645011,23.5925507 4.34398991,24.1493627 4.7980057,24.6367873 C5.35310439,25.2321478 5.72317018,25.189316 6.26456272,24.606805 C3.47193684,20.3322026 2.65642149,15.6712583 3.36485746,10.6873629 C2.64100197,10.4672081 2.10046601,10.6950726 1.82291667,11.3923726 C1.68242873,11.7453057 1.61475482,12.1273643 1.5787761,12.5179893 C1.71155439,12.3929208 1.8263432,12.224164 1.98396382,12.1564899 C2.13987127,12.0888158 2.35145965,12.0811061 2.51679013,12.1247943 C2.71638575,12.1779057 2.72666535,12.3723616 2.71467237,12.5668175 C2.50565395,15.8185991 3.08902149,18.9384594 4.28830877,21.9580934 C4.34398991,22.0985814 4.34912982,22.3555715 4.26346623,22.4335252 C4.12983158,22.5543105 3.89939693,22.6074219 3.70665439,22.6151316 C3.57044956,22.6202715 3.42996162,22.5020559 3.23122259,22.4121094 C3.35800439,22.6571066 3.43681469,22.8746917 3.5687364,23.0537281 Z M10.15625,23.9095053 C9.681675,23.1865064 9.30389956,22.4001164 8.88757544,21.6394257 C8.82418465,21.5246368 8.78220943,21.3987116 8.72652829,21.2685033 C8.31191754,21.8347382 8.01809211,21.9075522 7.31993553,21.5811746 C7.47755614,21.8887061 7.60005482,22.1491228 7.74139956,22.3984033 C8.32733684,23.4340735 9.01435724,24.3943599 9.91724912,25.1850329 C10.3558456,25.5688048 10.8372739,25.877193 11.4257814,25.9911252 C11.8018434,26.0647958 12.1008088,25.9440105 12.3869243,25.6707443 C11.3444011,25.4334566 10.6890763,24.7207373 10.15625,23.9095053 Z M6.88562237,11.466043 C6.9627193,10.8972382 7.02097039,10.3310033 7.11862675,9.77162149 C7.24883509,9.02635 7.45185724,8.30163794 7.89816338,7.67115548 C8.23225066,7.19829364 8.48581425,7.03895965 9.04519605,6.93016711 C8.66056754,6.53954211 7.80736031,6.49414057 7.24969167,6.87277281 C7.03039342,7.02097039 6.83079781,7.22913246 6.68773991,7.45100044 C6.124075,8.32562368 5.92276601,9.32017544 5.7908443,10.3318599 C5.73687632,10.7430441 5.70175439,11.1576548 5.64949978,11.6519325 C6.09580592,11.129386 6.32024408,11.1071136 6.88562237,11.466043 Z" id="Shape" fill="#FFFFFF" fill-rule="nonzero"></path>
            <path d="M43.3430991,25.1447711 C42.9250618,25.4882811 42.5327235,25.8806195 42.0667147,26.1444627 C41.4636445,26.4862596 40.8605743,26.3234991 40.3868559,25.8138022 C40.3174684,25.739275 40.2480811,25.6630346 40.1821204,25.5910772 C38.6513158,26.5410842 37.3869243,26.4434279 36.9491846,25.4060443 C37.2412967,25.3743489 37.5745272,25.4069011 37.84608,25.2929689 C38.185307,25.149911 38.5082579,24.9229031 38.777241,24.6684827 C39.5028099,23.9831757 39.9962309,23.1273987 40.4314009,22.2407827 C41.4807772,20.0983417 42.0992667,17.8256921 42.4564831,15.477659 C42.7434553,13.587925 42.8556743,11.6913377 42.5198739,9.79389386 C42.4033717,9.13257259 42.2217654,8.48752741 41.8405634,7.91957917 C41.376268,7.22827588 40.7757675,7.0578057 40.0150768,7.3953193 C39.9919478,7.4055989 39.9645355,7.4055989 39.8668792,7.42273158 C40.53848,6.82308794 41.1818121,6.30482456 42.0752811,6.37506842 C43.1640625,6.46073202 43.6180785,7.30708596 44.0378289,8.0926193 C44.3847658,8.07377325 44.7034333,8.00267281 45.0023987,8.05150088 C45.6337377,8.15601009 45.9798178,8.63144189 46.2325248,9.16598136 C46.397855,9.51377456 46.5135007,9.88384035 46.6557018,10.2556195 C46.7302289,10.2556195 46.8133224,10.2573329 46.8964158,10.2547629 C47.7393434,10.2342037 48.2267682,10.5263158 48.4503496,11.3324081 C48.636239,12.0022958 48.7818669,12.701309 48.8109923,13.3926123 C48.9403441,16.4379454 48.3424136,19.3616364 47.172252,22.169682 C46.7602112,23.1582373 46.2590803,24.1056743 45.4606978,24.8518024 C44.7454086,25.5208333 44.2185787,25.4925645 43.6754728,24.8749316 C43.6626235,24.8612254 43.6394943,24.8569421 43.6060855,24.8415228 C43.5212789,24.9408923 43.4467518,25.0599645 43.3430991,25.1447711 Z M44.6580318,10.8261377 C44.9055991,12.3775013 44.8370684,13.9357182 44.6014941,15.4827987 C44.3119518,17.3853825 43.9238967,19.2682634 43.2942708,21.09375 C42.7982798,22.5311816 41.9939009,23.7801535 40.9359581,24.8723616 C40.762918,25.051398 40.5993011,25.240714 40.4339706,25.4231772 C40.7988967,25.9088884 41.2931743,26.0922081 41.8191476,25.8412145 C42.199493,25.6604647 42.5678454,25.4069011 42.8625274,25.107936 C43.7165912,24.2418792 44.2751167,23.1693737 44.8413515,22.1756785 C44.5518092,22.1833882 44.2477044,22.2356428 43.960732,22.1885281 C43.5564009,22.1225671 43.4681675,21.8904193 43.5975193,21.5075042 C44.5997807,18.5272752 45.2713816,15.4862254 45.2234101,12.3226768 C45.219127,12.0142886 45.2773781,11.7770011 45.5883362,11.6802015 C45.8813048,11.5893982 46.1237322,11.6904811 46.3001987,11.9414748 C46.3164748,11.9646039 46.3387474,11.9825932 46.4029947,12.0494105 C46.2693601,10.9897546 46.1365818,9.9874932 45.6483004,9.0794614 C45.3236364,8.47724781 44.7522616,8.33675987 44.1688939,8.66742061 C44.3385075,9.40498224 44.543243,10.1082785 44.6580318,10.8261377 Z M44.044682,24.8817846 C44.3864789,25.1199287 44.6408991,25.1199287 44.9629934,24.8577987 C45.7579496,24.209327 46.3113351,23.3809623 46.7670643,22.4146794 C46.592311,22.4969162 46.4706689,22.5705866 46.3387474,22.6108485 C46.1117395,22.6819491 45.904434,22.6416873 45.7356772,22.457511 C45.5797697,22.2878974 45.6380208,22.1234237 45.712548,21.9375342 C46.9229715,18.9119037 47.508909,15.7826206 47.2861842,12.5205592 C47.2596285,12.1419272 47.6194149,11.9251987 47.9766311,12.1256511 C48.1436746,12.2198807 48.2738829,12.3792147 48.4143711,12.5034265 C48.4649123,12.0417009 48.2190583,11.2681605 47.9021039,10.9383566 C47.5371781,10.5580112 47.0934417,10.5605811 46.6334294,10.6702303 C47.3504318,15.6661184 46.5306333,20.3142132 43.7320107,24.6222246 C43.803968,24.6830456 43.9170436,24.7926947 44.044682,24.8817846 Z M41.2974575,21.2787829 C40.4382539,23.0340254 39.7066886,24.8912075 37.659334,25.7127193 C37.8966215,25.9431537 38.1904469,26.0613693 38.5579428,25.9945518 C39.2389667,25.8711965 39.7735061,25.4899945 40.2583607,25.0308388 C41.2597658,24.0825452 42.0178866,22.9594982 42.6081072,21.7199493 C42.6243833,21.6865406 42.6278099,21.6462787 42.6406592,21.5957373 C41.9836213,21.9126919 41.6649535,21.8355947 41.2974575,21.2787829 Z M43.2617189,7.35677083 C42.7528783,6.57295088 41.6581004,6.3767818 40.8922697,6.94387325 C41.565584,6.96357588 41.9502125,7.37476009 42.2457511,7.88617061 C42.7494518,8.75822368 42.9139254,9.72707654 43.0261445,10.7079221 C43.0552702,10.9563461 43.074116,11.2064829 43.0955318,11.4292079 C43.3182566,11.3598204 43.5461213,11.2236158 43.761993,11.2398917 C43.9615886,11.2553112 44.1474781,11.4352042 44.3410774,11.5431401 C44.1980195,10.1168447 44.09865,8.64429145 43.2617189,7.35677083 Z" id="Shape" fill="#FFFFFF" fill-rule="nonzero"></path>
            <path d="M21.5623287,30.2417421 C24.0003083,30.4361978 26.3791805,30.583539 28.7443463,30.0652754 C29.0398849,30.0010281 29.1152686,29.879386 29.1135838,29.5838474 C29.1007059,27.5022272 29.1092724,25.4197504 29.1109855,23.3381305 C29.1109855,23.2781662 29.1015625,23.2182018 29.0929963,23.1214022 C27.7292353,23.6824974 26.3123629,23.7930031 24.7892682,23.7878632 C24.7892682,24.8423794 24.7892682,25.8797629 24.7892682,26.9171465 C24.7524329,26.9171465 24.7164544,26.9171465 24.6796191,26.9171465 C24.6273645,25.9936952 24.5614035,25.0702439 24.5305647,24.1459362 C24.5211417,23.8452577 24.4260555,23.734752 24.1296601,23.7655908 C23.9557636,23.7844366 23.7775838,23.7690173 23.5599987,23.7690173 C23.5240202,25.5114103 23.4880414,27.2435239 23.4512061,28.9764939 C23.4366434,28.9773507 23.4220807,28.9790638 23.4083746,28.9799206 C23.3209978,28.2500684 23.2327645,27.5210732 23.1479579,26.7912213 C23.0357388,25.835218 22.9243763,24.8800713 22.8172971,23.924068 C22.7975947,23.7501713 22.7530496,23.6216763 22.5388912,23.629386 C22.457511,23.6328125 22.3744175,23.5994037 22.2913241,23.5865544 C21.6214364,23.479475 21.592311,23.479475 21.5837445,24.1853412 C21.5606154,25.9217379 21.5674684,27.6589912 21.5623287,29.3953879 C21.5614721,29.6652276 21.5623287,29.9359237 21.5623287,30.2417421 Z" id="Path" fill="#FFFFFF" fill-rule="nonzero"></path>
            <path d="M25.5936474,14.981668 C25.7135759,14.9645353 25.8343614,14.9474026 25.9894121,14.9251303 C26.0168243,15.4905086 26.0442366,16.0387542 26.0733623,16.6161252 C25.8797629,16.5989925 25.7375618,16.5869998 25.5962171,16.5741502 C25.5859375,16.5972794 25.5756579,16.6212651 25.5653783,16.6443943 C25.7881031,16.7437636 26.0108279,16.8439899 26.2335526,16.9433594 C26.2326961,16.9579221 26.2309829,16.9724849 26.2301261,16.9870478 C26.0305305,16.9733417 25.8309349,16.9596355 25.6321958,16.946786 C25.6184897,16.9690583 25.6047836,16.9913309 25.5902206,17.0144601 C25.7675439,17.1052632 25.9354441,17.238898 26.1239035,17.280873 C26.6867118,17.4050851 27.2983485,17.1181127 27.5604785,16.6041325 C27.8020491,16.1295572 27.9202645,15.6429893 27.7129592,15.0998836 C27.6007401,14.8060581 27.5579086,14.4591215 27.5836075,14.1447368 C27.6924,12.8229509 27.8354579,11.5037349 27.9742325,10.1845189 C28.0136377,9.81016996 28.0693189,9.43753421 28.1387061,9.068325 C28.1798246,8.84645702 28.2637748,8.63229846 28.3400151,8.37616491 C27.9956482,7.92985877 27.5484855,7.57264254 26.9060101,7.55037018 C26.5496504,7.53752061 26.1924342,7.53837719 25.8369311,7.55208333 C25.3520765,7.57007259 25.0702441,7.87417763 24.8655086,8.29221491 C25.3726357,7.70370746 25.9979785,7.57692566 26.7158375,7.78851425 C26.2635349,7.85704496 25.727282,7.71313048 25.5388228,8.2613761 C25.8369311,8.2613761 26.1992873,8.2613761 26.5941956,8.2613761 C26.5470807,8.2982114 26.532518,8.31791404 26.5153851,8.32219715 C25.6870204,8.52350614 25.6253428,8.42071009 25.5859375,9.41183531 C25.5328263,10.7473272 25.5756579,12.0871026 25.5807978,13.4243079 C25.5816544,13.6119105 25.6005004,13.7986568 25.6124932,14.0076754 C25.8857594,14.0316612 26.1496026,14.0556469 26.4228689,14.0796327 C26.0665092,14.2235471 25.7341351,14.357182 25.4009046,14.4925303 C25.4111842,14.5002399 25.4206072,14.5088061 25.4308868,14.5173726 C25.8480675,14.4813939 26.2669614,14.4102934 26.6841421,14.4188596 C27.1715667,14.4282827 27.3180511,14.5781934 27.3780154,15.0527686 C27.4208471,15.3937088 27.4474026,15.7406456 27.4302702,16.0824425 C27.409711,16.5004798 27.186986,16.7283443 26.7466763,16.8328535 C27.1647136,16.6503906 27.1912693,16.2966009 27.1724232,15.9256785 C27.1612871,15.7166599 27.1510075,15.5076412 27.1330182,15.2994792 C27.0850467,14.7606566 27.0242257,14.693839 26.4682704,14.7255346 C26.1684485,14.7426671 25.8720533,14.8257607 25.5739447,14.8788719 C25.5799412,14.9131373 25.5867943,14.9474026 25.5936474,14.981668 Z" id="Path" fill="#FFFFFF" fill-rule="nonzero"></path>
            <path d="M21.5366298,8.76850329 C22.0326206,8.54577851 22.5346081,8.36245877 23.0734307,8.38901447 C22.6134184,8.5783307 22.1465531,8.77021667 21.6796875,8.96124583 C21.6916805,9.01350044 21.7036732,9.06575526 21.7165228,9.11715329 C22.0351906,9.11715329 22.3547149,9.11715329 22.7239241,9.11715329 C22.3470053,9.27734386 22.0266241,9.41354846 21.7053866,9.54975329 C21.7105263,9.57630899 21.7156662,9.60200789 21.7208059,9.6285636 C21.8038996,9.63627325 21.886993,9.64398289 21.9735129,9.65254934 C22.214227,11.0822711 22.4540844,12.5128496 22.6973684,13.9588474 C22.8952509,13.9588474 23.0700042,13.9588474 23.3329908,13.9588474 C22.9663515,14.1687226 22.6374042,14.3074974 22.4883498,14.7135417 C23.2601768,14.1438803 23.936061,14.1061884 24.260725,14.5807634 C24.6881853,15.2061061 24.6564899,16.1869518 24.1682088,16.4704976 C24.5305647,16.0533169 24.3206895,15.62757 24.2059004,15.2129592 C24.0080182,14.4959566 23.407518,14.3537555 22.8447094,14.8780154 C22.8986774,14.9259868 22.9851974,14.9653921 22.9997601,15.023643 C23.0528715,15.2360882 23.0760007,15.4553864 23.1205456,15.669545 C23.1633772,15.8717105 23.2199151,16.0704496 23.2764529,16.2948877 C23.1676605,16.2948877 23.0802838,16.2948877 22.9937638,16.2948877 C22.9869107,16.3145901 22.9792009,16.3342928 22.9723478,16.354852 C23.1291118,16.4370888 23.2867325,16.5201822 23.4443531,16.6032759 C23.4409265,16.6161252 23.4375,16.6289748 23.4340735,16.6418243 C23.257607,16.604989 23.0802838,16.5681537 22.9012474,16.5313184 C22.7975947,16.8739719 23.0580114,16.988761 23.2978689,17.0333059 C23.7604509,17.1198259 24.2024741,17.0067502 24.5725399,16.7112116 C24.810684,16.521039 24.862082,16.2383498 24.8406662,15.9419544 C24.7078879,14.1053316 24.5708265,12.2695656 24.4466147,10.4329428 C24.4132059,9.94209167 24.4192024,9.44952719 24.4012132,8.9578193 C24.3977864,8.8575932 24.3977864,8.73423794 24.3421053,8.6622807 C24.0045917,8.2194011 23.5582855,7.96755066 22.9869107,8.00352939 C22.3932636,8.04207785 21.8647204,8.21683114 21.5366298,8.76850329 Z" id="Path" fill="#FFFFFF" fill-rule="nonzero"></path>
            <path d="M20.0358075,14.6552906 C19.7025768,14.3486158 19.3590667,14.0230947 19.0018504,13.71385 C18.9281798,13.6504592 18.7979715,13.6136239 18.7003154,13.6239035 C16.3882607,13.8646175 14.1053318,14.2740886 11.8369656,14.7726493 C11.5953947,14.8257607 11.4934553,14.9388364 11.4703263,15.1615612 C11.4060787,15.772341 11.5208675,16.3454289 11.8198329,16.8842518 C11.9440447,17.1078331 12.0982388,17.1703673 12.3603689,17.1198259 C13.9776934,16.8037281 15.5941612,16.4756373 17.2200522,16.2135075 C18.3910706,16.025048 19.5775083,15.931675 20.757093,15.7963268 C20.8710252,15.7834772 20.9858143,15.7774807 21.1100261,15.7672013 C21.1460048,15.5359101 21.0440654,15.487082 20.8453263,15.5042147 C18.4458952,15.71152 16.0713061,16.0841557 13.71642,16.5835732 C13.3052357,16.6709498 12.8923384,16.7471904 12.4845807,16.8474164 C12.2387268,16.9073807 12.0716831,16.8439899 11.9774535,16.6144121 C11.8712309,16.3582785 11.7770011,16.0978618 11.6990474,15.8965529 C11.9320518,15.8965529 12.1282211,15.9265351 12.3123974,15.8922697 C13.9631305,15.583025 15.6078673,15.2378015 17.2628838,14.9559691 C18.1409333,14.8060581 19.0369724,14.7589432 19.9253015,14.6655702 C19.9818395,14.6595737 20.0392338,14.6552906 20.0358075,14.6552906 Z" id="Path" fill="#FFFFFF" fill-rule="nonzero"></path>
            <path d="M34.8076,14.1293175 C34.8076,14.4728276 34.7973206,14.8060581 34.8153099,15.1375754 C34.819593,15.2086759 34.9146794,15.320895 34.9849232,15.3363145 C35.949493,15.5427632 36.9157759,15.7415022 37.8846285,15.9239651 C38.0037007,15.9462377 38.1424754,15.8648575 38.293243,15.8254522 C38.2624042,15.961657 38.2384184,16.1149945 38.1913035,16.2606224 C38.0011307,16.8491296 37.8829154,16.9159471 37.2884114,16.7925919 C36.5174412,16.6332579 35.7473274,16.4696408 34.9755004,16.3188732 C34.8701344,16.298314 34.7519189,16.3462855 34.6397,16.3625616 C34.6422697,16.4053934 34.6456963,16.448225 34.6482662,16.4902 C35.0954289,16.5835732 35.5434485,16.6760897 35.9906114,16.7686061 C36.5765489,16.890248 37.160773,17.0195998 37.7501371,17.1223958 C37.8555031,17.1412417 38.0302564,17.0812774 38.0885075,16.9990406 C38.4945518,16.4259526 38.6221904,15.7783375 38.5125412,15.0921737 C38.4954086,14.981668 38.3566338,14.8266173 38.2495546,14.8034882 C37.1624864,14.5687706 36.0702783,14.357182 34.9797836,14.1404537 C34.9403783,14.1327439 34.8984033,14.1353138 34.8076,14.1293175 Z" id="Path" fill="#FFFFFF" fill-rule="nonzero"></path>
            <path d="M21.1374384,13.9005963 C20.8761651,13.873184 20.5909061,13.9040228 20.3596149,13.8072232 C19.8404947,13.5904947 19.5578057,13.1202029 19.2896794,12.6533375 C19.2220053,12.5359785 19.1509046,12.4211897 19.0515351,12.3243901 C19.3333675,12.9891379 19.5895011,13.6778715 20.2465393,14.0881991 C20.6037555,14.3109237 20.9926673,14.2698053 21.3635897,14.0924822 C21.6128702,13.9725535 21.7165228,13.7626781 21.6582717,13.4962651 C21.3918586,12.2815583 21.1185925,11.0685649 20.8453263,9.85471491 C20.8247671,9.76391184 20.7862184,9.67653509 20.7536664,9.58830175 C20.4555579,8.79591557 19.9689899,8.61259605 19.2228618,9.0109307 C18.8065379,9.23365548 18.4887268,9.64312632 18.3825042,10.0491708 C18.5795298,9.87356096 18.7894053,9.60800439 19.0643846,9.46494649 C19.3333675,9.32445855 19.6683114,9.30818246 19.9741298,9.2379386 C19.9826961,9.26963399 19.9921191,9.30132939 20.0006853,9.33388158 C19.8327851,9.40669539 19.6606018,9.47094298 19.4995546,9.55489298 C19.3453605,9.63541667 19.2023026,9.73735614 19.0763776,9.88641031 C19.2699768,9.85214496 19.4635759,9.81787961 19.6571752,9.78361425 C19.2699768,10.0894325 19.3702029,10.4295162 19.5569491,10.7713132 C19.7274193,11.0839844 19.8996026,11.3949425 20.0923452,11.6939077 C20.1643024,11.8061268 20.2936542,11.8823671 20.4067298,11.9834498 C20.3090735,12.1110882 19.973273,12.1684827 20.1360336,12.509423 C20.3262061,12.1582031 20.567777,12.0142886 20.8658855,12.06483 C20.9275632,12.0751096 20.9900974,12.0913857 21.0457785,12.1196546 C21.4124178,12.3072575 21.6257197,13.5125412 21.3396039,13.8029399 C21.2864925,13.8560513 21.1974026,13.8757539 21.1254456,13.9100193 L21.1374384,13.9005963 Z" id="Path" fill="#FFFFFF" fill-rule="nonzero"></path>
            <path d="M31.3707855,10.2273507 C31.3373768,9.89155022 31.3031114,9.55660636 31.2697026,9.2216625 C31.2979715,9.21052632 31.3262404,9.19853333 31.3545094,9.18739715 C31.5258362,9.62256711 31.6980195,10.0577371 31.8899055,10.5451618 C31.9807088,10.5751439 32.1494656,10.6299684 32.3182224,10.684793 C32.4064557,9.18739715 30.9707375,7.7593886 29.6026934,8.00267281 C29.3619792,8.04550439 29.1392544,8.19027544 28.9362322,8.3564625 C29.1298316,8.31534408 29.3242873,8.27336886 29.5178866,8.23139386 C29.0167557,8.65885417 28.950795,8.76850329 28.9927702,9.15827171 C29.6849303,8.97666535 30.4233485,9.14970526 31.3707855,10.2273507 Z" id="Path" fill="#FFFFFF" fill-rule="nonzero"></path>
            <path d="M36.5448535,17.3288445 C36.4000822,17.2980057 36.2989996,17.2765899 36.148232,17.2440377 C36.0934075,17.6757811 36.0291599,18.0946752 35.988898,18.5152825 C35.8449836,20.0392338 35.7773096,21.5631853 36.1508018,23.0674342 C36.2330386,23.3980947 36.3632469,23.7270421 36.5311474,24.0234375 C36.9337651,24.7361568 37.5822368,24.8586555 38.2127193,24.3301123 C38.5125412,24.0782621 38.7883772,23.7715873 38.9956827,23.44007 C39.3743147,22.8327167 39.6946958,22.1885281 40.0390625,21.5589022 C40.0082237,21.5426261 39.9773849,21.5254934 39.9456895,21.5083607 C39.8266173,21.7379386 39.7289612,21.9812226 39.5850467,22.1936678 C39.1927083,22.771039 38.8337789,23.3852454 38.3643434,23.8949425 C37.6302083,24.6924684 36.9731702,24.5297081 36.6150974,23.5077439 C36.2553112,22.4840667 36.2261855,21.4124178 36.2750138,20.3459088 C36.3152754,19.4601493 36.4266379,18.5778167 36.5071614,17.6937706 C36.5174412,17.580695 36.5302906,17.4676193 36.5448535,17.3288445 Z" id="Path" fill="#FFFFFF" fill-rule="nonzero"></path>
            <path d="M13.8774671,17.2431811 C13.7078537,17.2774465 13.5973478,17.2997191 13.4619998,17.3271314 C13.524534,17.8642408 13.5947781,18.3902138 13.6444627,18.9170436 C13.7729579,20.2542489 13.8294956,21.592311 13.5468066,22.9158101 C13.4697094,23.2781662 13.3360746,23.6413789 13.1570382,23.966043 C12.8983346,24.4371917 12.4691612,24.5468408 12.0442708,24.21618 C11.6527893,23.9129318 11.3049961,23.5360129 11.0043175,23.1411048 C10.6839364,22.7196408 10.4423658,22.2390693 10.1673864,21.7859101 C10.1613899,21.7953331 10.1408307,21.8158923 10.1451138,21.8253154 C10.50233,22.6785224 10.9203673,23.4957511 11.583402,24.1604989 C11.7290296,24.3061268 11.9080662,24.4286252 12.0913857,24.525425 C12.5111364,24.7455798 12.942023,24.6993215 13.2289954,24.326686 C13.4714228,24.0105879 13.6753015,23.6379522 13.7926605,23.2584636 C14.1755757,22.0206276 14.1627263,20.7399603 14.0899123,19.4635759 C14.0487939,18.7354373 13.9528509,18.0098684 13.8774671,17.2431811 Z" id="Path" fill="#FFFFFF" fill-rule="nonzero"></path>
            <path d="M41.9973274,12.3278167 C42.0478689,11.2621643 42.0444421,10.249623 41.7626096,9.26192434 C41.6863693,8.99379803 41.5724371,8.72738487 41.4259526,8.49009737 C41.081586,7.93071535 40.4913651,7.77652149 39.9705318,8.17399956 C39.5533513,8.49266711 39.1738625,8.8892886 38.8654743,9.31332237 C38.0790844,10.3952509 37.1427838,12.6696136 36.8558114,14.053077 C36.971457,14.0787761 37.0879592,14.1053316 37.2224507,14.1353138 C37.4109101,13.5562294 37.5873768,12.9908511 37.7792627,12.4306127 C38.143332,11.3701 38.5699355,10.3344298 39.2089844,9.40498224 C39.4428454,9.06489868 39.7255346,8.74023443 40.042489,8.47639123 C40.5247739,8.07548662 41.0224781,8.16371974 41.2871781,8.73252456 C41.5313186,9.25507127 41.7000754,9.82644605 41.808868,10.3943943 C41.9262268,11.0068873 41.9356498,11.6390831 41.9973274,12.3278167 Z" id="Path" fill="#FFFFFF" fill-rule="nonzero"></path>
            <path d="M7.97440395,12.3183936 C8.08662281,11.4600465 8.17142961,10.5965596 8.32305373,9.74506579 C8.38901447,9.37414342 8.55348816,9.00407763 8.74451754,8.67427368 C9.02806338,8.18170921 9.4855057,8.07120351 9.90782632,8.44726557 C10.3310033,8.82418443 10.7122053,9.27563048 11.0111706,9.75620197 C11.7855675,11.0000342 12.2421533,12.3843544 12.6601906,13.7789542 C12.6927425,13.8877467 12.7261513,13.9973958 12.7629866,14.1181811 C12.8452235,14.1096149 12.9171807,14.107045 12.9874246,14.0941954 C13.0362529,14.0856292 13.0833675,14.0642132 13.1818805,14.0325178 C12.9582991,13.3686268 12.7604167,12.7098752 12.5154195,12.0691132 C12.0434143,10.8347039 11.5157279,9.62513706 10.6016996,8.63486842 C10.4329428,8.45240548 10.2359171,8.28279189 10.0234719,8.15515351 C9.44524408,7.80564693 8.86444627,7.93499868 8.55520154,8.5354989 C8.34361294,8.94668311 8.17913925,9.40840877 8.119175,9.86328114 C8.01209561,10.6762268 7.99924627,11.5011649 7.94699167,12.3209636 C7.95641447,12.320107 7.96498092,12.3192502 7.97440395,12.3183936 Z" id="Path" fill="#FFFFFF" fill-rule="nonzero"></path>
            <path d="M11.5491366,13.71385 C11.4634732,13.4585732 11.3298384,13.2315654 11.0308732,13.2195724 C10.7267682,13.2075794 10.5503015,13.4328741 10.5014735,13.6753015 C10.3943943,14.2132675 10.2804618,14.7640831 10.2907417,15.3071888 C10.3087309,16.2863213 10.5477316,17.2337583 11.0086007,18.1075246 C11.1722178,18.4167695 11.3812364,18.7191612 11.6296601,18.9650151 C12.0442708,19.3753425 12.4948603,19.2091557 12.6096491,18.6343544 C12.6370614,18.4964364 12.6447711,18.3542351 12.6156456,18.2008978 C12.5394053,18.3679412 12.4751577,18.5418379 12.3843544,18.7003154 C12.2635691,18.9093338 12.0905292,18.9470259 11.9329086,18.7457169 C11.7984171,18.5743901 11.6716351,18.3885004 11.5851151,18.1906182 C11.0317298,16.9287965 10.7516105,15.6087239 10.7678866,14.2304002 C10.7695998,14.0950522 10.7858759,13.9579908 10.8150013,13.8260691 C10.907518,13.4080318 11.0788447,13.3514939 11.4266379,13.6161939 C11.4677564,13.6478893 11.5080182,13.681298 11.5491366,13.71385 Z" id="Path" fill="#FFFFFF" fill-rule="nonzero"></path>
            <path d="M37.3972039,18.202611 C37.3817846,18.5786732 37.3449493,19.002707 37.7655566,19.150048 C38.1741708,19.2922491 38.4320175,18.9650151 38.641893,18.6806127 C39.2749452,17.8239789 39.5704838,16.8302838 39.6664268,15.7911868 C39.7212513,15.1966831 39.6441544,14.5884732 39.6158855,13.9871162 C39.6107456,13.8868901 39.561061,13.7858072 39.5173726,13.6915776 C39.4094368,13.4619998 39.2946478,13.2195724 38.9913996,13.2195724 C38.6872945,13.2195724 38.5416667,13.4405838 38.4123149,13.6787281 C38.4422971,13.6881511 38.4611432,13.7018572 38.4722794,13.6967173 C38.6478893,13.6239035 38.821786,13.5485197 38.9965393,13.4739925 C39.074493,13.671875 39.2047013,13.8646175 39.2209772,14.0667831 C39.3049274,15.0801809 39.1087583,16.0653096 38.8389186,17.0341625 C38.7275561,17.4350671 38.5605127,17.8205524 38.4106018,18.209464 C38.3660568,18.3251096 38.3112322,18.4467518 38.229852,18.5375548 C38.1159197,18.66348 37.9720053,18.7628496 37.8409404,18.8742118 C37.7312912,18.7448601 37.6113625,18.6215048 37.5137061,18.4835868 C37.4563118,18.4030634 37.4348958,18.2968408 37.3972039,18.202611 Z" id="Path" fill="#FFFFFF" fill-rule="nonzero"></path>
            <path d="M29.9110816,9.2799136 C29.7243353,9.72108004 29.5555785,10.0560239 29.4484991,10.4098136 C29.4133772,10.5246026 29.4964706,10.7447575 29.5975535,10.8192846 C29.9727592,11.0959772 30.3633842,11.3623904 30.7788515,11.5739789 C31.0812432,11.728173 31.4641586,11.3838061 31.4076206,10.991468 C31.3733553,10.7490406 31.2534265,10.4800575 31.0846697,10.3044476 C30.7488693,9.95322785 30.3539612,9.65940241 29.9110816,9.2799136 Z" id="Path" fill="#FFFFFF" fill-rule="nonzero"></path>
            <path d="M28.2166599,13.5416667 C28.3905566,13.4782759 28.483073,13.4448671 28.6055715,13.4003221 C28.6055715,13.9288651 28.6055715,14.4325658 28.6055715,14.9662487 C28.515625,14.9474026 28.4325316,14.9285568 28.2663447,14.8925781 C28.3725671,14.9996575 28.4376715,15.0536252 28.4864996,15.1187294 C28.5378976,15.1864035 28.5747329,15.2652138 28.6175645,15.3380276 C28.5473206,15.3774329 28.4770765,15.4168379 28.3965531,15.4613829 C28.6492599,15.6506991 28.9208127,15.6138638 29.1906524,15.5033579 C29.8339844,15.2395149 30.0918311,14.5927564 30.1346629,14.0222382 C30.1398026,13.9597039 30.0498561,13.8740406 29.984752,13.8243557 C29.8716763,13.7378357 29.7423246,13.6701618 29.6438118,13.6093408 C29.6026934,14.0256647 29.5752811,14.4359923 29.5136035,14.84118 C29.4973274,14.9456895 29.3756853,15.0347794 29.2651796,15.1015967 C29.5812774,14.6064625 29.446786,14.0959088 29.3448465,13.6084842 C29.2583265,13.2015831 28.6518298,13.143332 28.2166599,13.5416667 Z" id="Path" fill="#FFFFFF" fill-rule="nonzero"></path>
            <path d="M49.0868285,16.8594092 C49.0097314,17.2962925 48.9352044,17.7143298 48.8529675,18.1777686 C48.9951686,18.1777686 49.1262336,18.1777686 49.2924206,18.1777686 C49.1202373,18.7448601 49.1467928,19.4130346 48.4931811,19.7591145 C48.6593682,19.9201618 48.7647342,19.9330112 48.8949425,19.765111 C48.9960252,19.6349026 49.080832,19.486705 49.1467928,19.3350809 C49.420059,18.7037417 49.555407,18.0432772 49.513432,17.3545436 C49.4894463,16.9647752 49.4406182,16.9168037 49.0868285,16.8594092 Z" id="Path" fill="#FFFFFF" fill-rule="nonzero"></path>
            <path d="M1.56592654,19.7659675 C1.10848421,19.5817914 0.751267982,18.8510829 0.750411184,18.1854783 C0.872053289,18.1854783 0.995408553,18.1854783 1.14703268,18.1854783 C1.06736579,17.7246094 0.995408553,17.3048588 0.921737939,16.8791118 C0.679310526,16.8354235 0.549102193,16.9313664 0.521689912,17.1583746 C0.411184211,18.0706895 0.588507456,18.9247533 1.06565241,19.7128564 C1.1881511,19.9150219 1.3509114,19.9261581 1.56592654,19.7659675 Z" id="Path" fill="#FFFFFF" fill-rule="nonzero"></path>
            <path d="M21.1254456,13.9100193 C21.3310377,13.6872943 21.3593066,13.4405838 21.2428044,13.1630346 C21.166564,12.9805715 21.1091695,12.7903989 21.0474919,12.6019395 C20.9695382,12.3646518 20.8256237,12.2866982 20.5840531,12.4091969 C20.712548,12.8332305 20.8359033,13.2572643 20.9738213,13.6770149 C21.000377,13.7601083 21.0809004,13.8269257 21.1374384,13.9005963 C21.1374384,13.9005963 21.1254456,13.9100193 21.1254456,13.9100193 Z" id="Path" fill="#FFFFFF" fill-rule="nonzero"></path>
            <path d="M28.515625,11.8832237 C28.3717105,12.3329564 28.6338406,12.8717789 28.1489857,13.1767408 C28.4539474,13.1082101 28.749486,13.0422491 29.053591,12.974575 C28.8891173,12.6396314 28.7083675,12.2738487 28.515625,11.8832237 Z" id="Path" fill="#FFFFFF" fill-rule="nonzero"></path>
            <path d="M3.59443531,11.9954428 C3.76319211,11.8823671 3.91053333,11.7367393 4.0861432,11.676775 C4.44935592,11.5534197 4.78686952,11.8258292 4.78001645,12.2070311 C4.71833882,15.4485333 5.40107588,18.560684 6.44702588,21.6077303 C6.52497939,21.8338816 6.46844167,21.9777961 6.28683531,22.0831621 C5.92533596,22.2930373 5.55612675,22.3367257 5.18263443,22.073739 C5.17492456,22.1097175 5.15522215,22.1439829 5.16550175,22.1628289 C5.73687632,23.1993557 6.2928318,24.2530154 7.13832939,25.0993695 C7.45528377,25.4171807 7.854475,25.6861636 8.26565921,25.8703399 C8.74623092,26.0870682 9.19767675,25.8908991 9.57373904,25.4300303 C9.23365548,25.0531114 8.88586228,24.6796189 8.55091842,24.2949904 C7.48954912,23.0785704 6.80938202,21.6616982 6.39562785,20.1171875 C5.73088004,17.6380895 5.16464518,15.1418586 5.20662018,12.5505414 C5.22717939,11.2981428 5.38565658,10.06973 5.82682303,8.89014518 C5.88935724,8.72310175 5.85337851,8.6468614 5.69747127,8.5774739 C5.24088553,8.37530833 4.71748224,8.52350614 4.42793991,8.96981228 C4.05016447,9.55232325 3.90368026,10.2187842 3.77518509,10.8869586 C3.70408443,11.2561678 3.65354298,11.6288035 3.59443531,11.9954428 Z" id="Path" fill="#000000" fill-rule="nonzero"></path>
            <path d="M3.23122259,22.4121094 C3.35800439,22.6571066 3.43681469,22.8746917 3.5687364,23.0537281 C3.9645011,23.5925507 4.34398991,24.1493627 4.7980057,24.6367873 C5.35310439,25.2321478 5.72317018,25.189316 6.26456272,24.606805 C3.47193684,20.3322026 2.65642149,15.6712583 3.36485746,10.6873629 C2.64100197,10.4672081 2.10046601,10.6950726 1.82291667,11.3923726 C1.68242873,11.7453057 1.61475482,12.1273643 1.5787761,12.5179893 C1.71155439,12.3929208 1.8263432,12.224164 1.98396382,12.1564899 C2.13987127,12.0888158 2.35145965,12.0811061 2.51679013,12.1247943 C2.71638575,12.1779057 2.72666535,12.3723616 2.71467237,12.5668175 C2.50565395,15.8185991 3.08902149,18.9384594 4.28830877,21.9580934 C4.34398991,22.0985814 4.34912982,22.3555715 4.26346623,22.4335252 C4.12983158,22.5543105 3.89939693,22.6074219 3.70665439,22.6151316 C3.57130614,22.6202715 3.42996162,22.5020559 3.23122259,22.4121094 Z" id="Path" fill="#000000" fill-rule="nonzero"></path>
            <path d="M12.3869243,25.6707443 C11.3444011,25.4334566 10.6890763,24.7207373 10.15625,23.9095053 C9.681675,23.1865064 9.30389956,22.4001164 8.88757544,21.6394257 C8.82418465,21.5246368 8.78220943,21.3987116 8.72652829,21.2685033 C8.31191754,21.8347382 8.01809211,21.9075522 7.31993553,21.5811746 C7.47755614,21.8887061 7.60005482,22.1491228 7.74139956,22.3984033 C8.32733684,23.4340735 9.01435724,24.3943599 9.91724912,25.1850329 C10.3558456,25.5688048 10.8372739,25.877193 11.4257814,25.9911252 C11.8018434,26.0647958 12.1008088,25.9440105 12.3869243,25.6707443 Z" id="Path" fill="#000000" fill-rule="nonzero"></path>
            <path d="M5.64949978,11.6519325 C6.09580592,11.129386 6.32024408,11.1071136 6.88562237,11.466043 C6.9627193,10.8972382 7.02097039,10.3310033 7.11862675,9.77162149 C7.24797851,9.02635 7.45185724,8.30163794 7.89816338,7.67115548 C8.23225066,7.19829364 8.48581425,7.03895965 9.04519605,6.93016711 C8.66056754,6.53954211 7.80736031,6.49414057 7.24969167,6.87277281 C7.03039342,7.02097039 6.83079781,7.22913246 6.68773991,7.45100044 C6.124075,8.32562368 5.92276601,9.32017544 5.7908443,10.3318599 C5.73687632,10.7430441 5.70175439,11.1576548 5.64949978,11.6519325 Z" id="Path" fill="#000000" fill-rule="nonzero"></path>
            <path d="M44.1688939,8.66742061 C44.3385075,9.40498224 44.543243,10.1082785 44.6580318,10.8261377 C44.9055991,12.3775013 44.8370684,13.9357182 44.6014941,15.4827987 C44.3119518,17.3853825 43.9238967,19.2682634 43.2942708,21.09375 C42.7982798,22.5311816 41.9939009,23.7801535 40.9359581,24.8723616 C40.762918,25.051398 40.5993011,25.240714 40.4339706,25.4231772 C40.7988967,25.9088884 41.2931743,26.0922081 41.8191476,25.8412145 C42.199493,25.6604647 42.5678454,25.4069011 42.8625274,25.107936 C43.7165912,24.2418792 44.2751167,23.1693737 44.8413515,22.1756785 C44.5518092,22.1833882 44.2477044,22.2356428 43.960732,22.1885281 C43.5564009,22.1225671 43.4681675,21.8904193 43.5975193,21.5075042 C44.5997807,18.5272752 45.2713816,15.4862254 45.2234101,12.3226768 C45.219127,12.0142886 45.2773781,11.7770011 45.5883362,11.6802015 C45.8813048,11.5893982 46.1237322,11.6904811 46.3001987,11.9414748 C46.3164748,11.9646039 46.3387474,11.9825932 46.4029947,12.0494105 C46.2693601,10.9897546 46.1365818,9.9874932 45.6483004,9.0794614 C45.324493,8.47724781 44.7531182,8.33590329 44.1688939,8.66742061 Z" id="Path" fill="#000000" fill-rule="nonzero"></path>
            <path d="M43.7320107,24.6222246 C43.803968,24.6830456 43.9170436,24.7926947 44.044682,24.8817846 C44.3864789,25.1199287 44.6408991,25.1199287 44.9629934,24.8577987 C45.7579496,24.209327 46.3113351,23.3809623 46.7670643,22.4146794 C46.592311,22.4969162 46.4706689,22.5705866 46.3387474,22.6108485 C46.1117395,22.6819491 45.904434,22.6416873 45.7356772,22.457511 C45.5797697,22.2878974 45.6380208,22.1234237 45.712548,21.9375342 C46.9229715,18.9119037 47.508909,15.7826206 47.2861842,12.5205592 C47.2596285,12.1419272 47.6194149,11.9251987 47.9766311,12.1256511 C48.1436746,12.2198807 48.2738829,12.3792147 48.4143711,12.5034265 C48.4649123,12.0417009 48.2190583,11.2681605 47.9021039,10.9383566 C47.5371781,10.5580112 47.0934417,10.5605811 46.6334294,10.6702303 C47.3504318,15.6661184 46.5306333,20.3142132 43.7320107,24.6222246 Z" id="Path" fill="#000000" fill-rule="nonzero"></path>
            <path d="M42.6406592,21.5957373 C41.9836213,21.9126919 41.6649535,21.8355947 41.2974575,21.2787829 C40.4382539,23.0340254 39.7066886,24.8912075 37.659334,25.7127193 C37.8966215,25.9431537 38.1904469,26.0613693 38.5579428,25.9945518 C39.2389667,25.8711965 39.7735061,25.4899945 40.2583607,25.0308388 C41.2597658,24.0825452 42.0178866,22.9594982 42.6081072,21.7199493 C42.6243833,21.6865406 42.6278099,21.6462787 42.6406592,21.5957373 Z" id="Path" fill="#000000" fill-rule="nonzero"></path>
            <path d="M44.3410774,11.5431401 C44.1980195,10.1168447 44.09865,8.64429145 43.2617189,7.35677083 C42.7528783,6.57295088 41.6581004,6.3767818 40.8922697,6.94387325 C41.565584,6.96357588 41.9502125,7.37476009 42.2457511,7.88617061 C42.7494518,8.75736711 42.9139254,9.72707654 43.0261445,10.7079221 C43.0552702,10.9563461 43.074116,11.2064829 43.0955318,11.4292079 C43.3182566,11.3598204 43.5461213,11.222759 43.761993,11.2398917 C43.9615886,11.2553112 44.1474781,11.4352042 44.3410774,11.5431401 Z" id="Path" fill="#000000" fill-rule="nonzero"></path>
            <g id="Group" transform="translate(2.069589, 30.413238)" fill="#FFFFFF" fill-rule="nonzero">
                <g transform="translate(-0.000000, 0.000000)" id="Shape">
                    <path d="M0,6.39134474 L2.50993684,6.98327851 C4.02018224,7.33963816 4.82284803,6.79567588 5.08497807,5.68376513 C5.28371711,4.8408375 5.05413925,4.20007544 4.2283443,3.88826075 L4.24290702,3.82315658 C4.9933182,3.83429298 5.35310439,3.42996184 5.50130197,2.80033596 C5.73344978,1.81777697 5.31455592,0.897752193 3.90625,0.566235088 L1.50767544,0 L0,6.39134474 Z M2.62729561,2.92369123 L2.89542215,1.7843682 L3.43253158,1.91115 C3.78460789,1.99424342 3.97735044,2.25466009 3.89254386,2.61615965 C3.80688048,2.97765921 3.52504781,3.13527982 3.19181732,3.0573261 L2.62729561,2.92369123 Z M2.02850877,5.46189693 L2.34974649,4.09984934 L2.8868557,4.22663114 C3.31260263,4.32771404 3.51733816,4.58127763 3.40768904,5.04385965 C3.30060987,5.49787566 2.99136513,5.68890504 2.56561798,5.58867895 L2.02850877,5.46189693 Z"></path>
                </g>
            </g>
            <g id="Group" transform="translate(7.411025, 31.561137)" fill="#FFFFFF" fill-rule="nonzero">
                <g id="Path">
                    <polygon points="1.46081977e-16 6.46244518 3.46508355 7.08693136 3.73834978 5.56983289 2.0901864 5.27258092 2.98108553 0.327234211 1.16416513 0"></polygon>
                </g>
            </g>
            <g id="Group" transform="translate(11.076692, 32.374931)" fill="#FFFFFF" fill-rule="nonzero">
                <g id="Shape">
                    <path d="M3.49335263,6.76483706 L5.30684627,6.99355811 L4.60611974,0.286972368 L2.33090044,0 L0,6.32538382 L1.84090592,6.556675 L2.15443399,5.51243838 L3.45823048,5.67691206 L3.49335263,6.76483706 Z M2.58960395,4.11869518 L3.13099649,2.32661732 L3.30660636,1.61903794 L3.35372127,1.62503443 L3.33915833,2.35231645 L3.40083596,4.22149123 L2.58960395,4.11869518 Z"></path>
                </g>
            </g>
            <g id="Group" transform="translate(16.934084, 32.884860)" fill="#FFFFFF" fill-rule="nonzero">
                <g transform="translate(0.000000, -0.000000)" id="Path">
                    <path d="M2.18899961,6.75892647 C3.49022637,6.84458963 4.31173821,6.24151946 4.5961404,4.829787 L3.06533602,4.32779972 C2.97881584,4.90345761 2.82119523,5.27437998 2.34662023,5.24354117 C1.78638163,5.20670586 1.74783316,4.48884687 1.82493031,3.3203984 C1.90117066,2.16222954 2.031379,1.49319862 2.59161759,1.53003393 C3.06619259,1.56172933 3.17755487,1.90266946 3.1869779,2.48518042 L4.74862132,2.22647713 C4.67238097,0.79075893 3.93567593,0.0934589305 2.63530575,0.00693897432 C0.622216498,-0.125839315 0.121942375,1.67223503 0.018289524,3.22959533 C-0.0845065287,4.79637845 0.194756191,6.62700476 2.18899961,6.75892647 Z"></path>
                </g>
            </g>
            <g id="Group" transform="translate(22.027434, 33.158489)" fill="#FFFFFF" fill-rule="nonzero">
                <g id="Path">
                    <polygon points="3.31174605 6.58066064 5.29142675 6.59008355 3.5576 2.68983004 5.30170636 0.0231291667 3.26463136 0.0145627193 1.82719978 2.38743838 1.83747939 0.00770964912 0.0291254386 0 0 6.5669545 1.80835395 6.57466421 1.82120351 3.73834978 2.16385702 3.58758224"></polygon>
                </g>
            </g>
            <g id="Group" transform="translate(29.322221, 32.944438)" fill="#FFFFFF" fill-rule="nonzero">
                <g id="Path">
                    <polygon points="0.418037281 6.66803739 2.22210789 6.55324846 1.80407061 0 0 0.114789035"></polygon>
                </g>
            </g>
            <g id="Group" transform="translate(31.601825, 32.673668)" fill="#FFFFFF" fill-rule="nonzero">
                <g id="Shape">
                    <path d="M5.25973136,6.30902247 L3.88140768,3.89074527 C4.40138421,3.47185141 4.69349649,2.79939374 4.60526316,1.97616874 C4.4664886,0.669802292 3.57730263,-0.125153849 2.25209013,0.0161906688 L0,0.256904704 L0.6973,6.78616742 L2.52364298,6.5917115 L2.29320855,4.43385098 L2.41656382,4.42100141 L3.41454211,6.50604812 L5.25973136,6.30902247 Z M1.97625417,1.46218848 L2.21268509,1.43734615 C2.52535636,1.40393738 2.76264386,1.65578782 2.81575526,2.1577751 C2.86972325,2.6589058 2.72323882,3.07694308 2.40114452,3.11120843 L2.15529057,3.13776413 L1.97625417,1.46218848 Z"></path>
                </g>
            </g>
            <g id="Group" transform="translate(36.654871, 31.913947)" fill="#FFFFFF" fill-rule="nonzero">
                <g transform="translate(0.000000, 0.000000)" id="Shape">
                    <path d="M2.9241159,6.71498453 C4.53887072,6.44771479 5.11795493,5.40604813 4.71790713,2.99291063 C4.31700252,0.579773346 3.43209967,-0.218609329 1.81734506,0.0495169868 C0.268551205,0.306507118 -0.273697918,1.34217751 0.127206687,3.75531479 C0.527254713,6.1675955 1.37446546,6.97283124 2.9241159,6.71498453 Z M2.72280713,5.15676764 C2.36644748,5.21587532 2.1540023,4.92376326 1.91071809,3.4589194 C1.66315099,1.9658069 1.76680362,1.60173738 2.12316327,1.54262971 C2.47095669,1.48437861 2.68597182,1.7961933 2.9343955,3.28930602 C3.17682292,4.75329308 3.07060033,5.09937313 2.72280713,5.15676764 Z"></path>
                </g>
            </g>
            <g id="Group" transform="translate(41.145685, 30.419709)" fill="#FFFFFF" fill-rule="nonzero">
                <g id="Path">
                    <polygon points="3.48564298 0.388055263 4.23862412 3.63212719 4.65323465 4.78686974 2.21611162 0.682737281 0 1.19671754 1.48454649 7.59320175 3.16269211 7.20343355 2.43112675 4.05187785 1.9377057 2.68126382 4.42365702 6.91132149 6.63891184 6.39648443 5.15436557 0"></polygon>
                </g>
            </g>
            <g id="Group" transform="translate(7.204193, 42.598151)" fill="#FF1616" fill-rule="nonzero">
                <g id="Path">
                    <path d="M2.48766447,1.20227294 L2.02508224,1.14059531 L2.00452303,0.698572284 C1.95398158,0.657453863 1.87859781,0.618048819 1.77837171,0.578643556 C1.67728904,0.540095091 1.56935307,0.512682811 1.45285088,0.496406714 C1.28323728,0.474134346 1.14788925,0.4921236 1.0450932,0.551231275 C0.942297149,0.611195749 0.882332895,0.696858907 0.866913377,0.808221407 C0.853207237,0.916157153 0.889185965,1.0095304 0.9765625,1.08919728 C1.06565241,1.16715101 1.22412961,1.25966746 1.45285088,1.36674663 C1.78179825,1.50894794 2.02251228,1.66999487 2.17584978,1.84988807 C2.33090044,2.03063785 2.39172149,2.24736614 2.35745614,2.50092974 C2.32062083,2.7664861 2.18698596,2.96008544 1.95655154,3.08344071 C1.72526053,3.20850935 1.43914474,3.24791439 1.09649123,3.1999429 C0.849780702,3.16739092 0.633908991,3.09886022 0.448876096,2.99435079 C0.263843202,2.88984136 0.113932237,2.75963303 0,2.60372579 L0.0856633772,1.95611066 L0.565378289,2.02121483 L0.57223136,2.47351746 C0.628769298,2.53091198 0.709292763,2.58487996 0.812088816,2.63456461 C0.914884868,2.6825361 1.03138706,2.71508829 1.16159539,2.73050759 C1.33292215,2.75620671 1.46655702,2.73993062 1.5625,2.6825361 C1.66015614,2.62342842 1.71755066,2.53519509 1.73382675,2.4186929 C1.74924605,2.30219071 1.72097719,2.20196461 1.64816338,2.11715781 C1.57449298,2.03320759 1.43400482,1.94411768 1.22669956,1.84988807 C0.877192982,1.69740715 0.617632895,1.53464685 0.448876096,1.36332009 C0.279262719,1.19027996 0.212445175,0.976121626 0.246710526,0.72255803 C0.280975877,0.471564389 0.415467325,0.280535004 0.651041667,0.15032667 C0.885759211,0.0201183368 1.16502193,-0.0252831982 1.48711623,0.0132652667 C1.72440373,0.0458172404 1.93599232,0.111778205 2.12102522,0.212004302 C2.30777149,0.31051724 2.45853904,0.427876012 2.57332785,0.564937416 L2.48766447,1.20227294 Z"></path>
                </g>
            </g>
            <g id="Group" transform="translate(11.585867, 43.028577)" fill="#FF1616" fill-rule="nonzero">
                <g id="Path">
                    <polygon points="2.85430373 0.277549342 2.77206689 1.1033443 2.29235197 1.05537281 2.30263158 0.705866228 1.72697368 0.647615132 1.51110197 2.84059759 1.84004934 2.93654057 1.80235746 3.31003289 0.513980263 3.1832511 0.551672149 2.80975877 0.887472588 2.77891996 1.1033443 0.5859375 0.534539474 0.531112939 0.476288377 0.873766447 0 0.825794956 0.0822368421 0"></polygon>
                </g>
            </g>
            <g id="Group" transform="translate(16.039325, 43.449570)" fill="#FF1616" fill-rule="nonzero">
                <g id="Shape">
                    <path d="M1.58648575,0.0856633772 C1.94284539,0.106222588 2.2169682,0.203878728 2.40885417,0.37691886 C2.60074013,0.55081557 2.68726009,0.780393421 2.66927083,1.06565241 C2.65984781,1.22327303 2.60930636,1.35862127 2.51850329,1.46998355 C2.42684342,1.57963268 2.29749189,1.66443947 2.13130482,1.72354715 C2.31119803,1.79036469 2.43797961,1.88973399 2.51165022,2.0216557 C2.58446404,2.15186404 2.61530285,2.30948465 2.60416667,2.49451754 L2.59388706,2.65213816 C2.58874715,2.72066886 2.59902697,2.77549342 2.62472588,2.81661184 C2.6495682,2.85773026 2.69325658,2.88428596 2.75493421,2.89542215 L2.83031798,2.90912829 L2.80633224,3.28604715 L2.48766447,3.26548794 C2.28207237,3.25349496 2.14158443,3.19096075 2.06620066,3.07702851 C1.99081689,2.96052632 1.95740811,2.81489846 1.96683114,2.63843202 L1.98053728,2.46025219 C1.98910373,2.31205461 1.95483838,2.19212588 1.87774123,2.10046601 C1.80235746,2.00966294 1.69013838,1.95655154 1.54194079,1.94284539 L1.03138706,1.91200658 L0.98341557,2.734375 L1.31578947,2.81661184 L1.29180373,3.1935307 L0,3.11472039 L0.0239857456,2.73780154 L0.359786184,2.69668311 L0.493421053,0.459155702 L0.167900219,0.373492325 L0.18845943,0 L0.520833333,0.0205592105 L1.58648575,0.0856633772 Z M1.06222588,1.42886513 L1.4939693,1.45627741 C1.66957917,1.46570044 1.80321404,1.4357182 1.8948739,1.3671875 C1.98567697,1.2986568 2.03621842,1.19500417 2.04564145,1.05537281 C2.05249452,0.916598026 2.01480263,0.801809211 1.93256579,0.712719298 C1.85204232,0.621916009 1.72783026,0.571374781 1.55907346,0.561951754 L1.11705044,0.534539474 L1.06222588,1.42886513 Z"></path>
                </g>
            </g>
            <g id="Group" transform="translate(20.762962, 43.692346)" fill="#FF1616" fill-rule="nonzero">
                <g id="Path">
                    <polygon points="2.04564145 1.79550439 0.99026864 1.76809211 0.96970943 2.66241776 1.97711075 2.68640351 2.01480263 2.31291118 2.49109101 2.32661732 2.4705318 3.17982456 0 3.12157346 0.0102796053 2.74465461 0.342653509 2.68983004 0.394051535 0.448876096 0.0651041667 0.37691886 0.0719572368 0 0.40433114 0.00685307018 2.5390625 0.0582510965 2.51850329 0.911458333 2.03878838 0.897752193 2.0216557 0.524259868 1.02110746 0.500274123 1.00397478 1.28837719 2.05934759 1.31578947"></polygon>
                </g>
            </g>
            <g id="Group" transform="translate(25.233045, 43.715269)" fill="#FF1616" fill-rule="nonzero">
                <g id="Path">
                    <polygon points="3.1935307 0 3.20038377 0.37691886 2.86458333 0.445449561 2.90570175 3.125 2.28207237 3.13527961 0.986842105 1.05537281 0.973135965 1.05537281 1.00054825 2.71724232 1.33634868 2.77549342 1.34320175 3.15241228 0.0479714912 3.16954496 0.0411184211 2.7926261 0.373492325 2.72752193 0.339226974 0.486567982 0.00685307018 0.424890351 0 0.0479714912 0.332373904 0.0445449561 0.959429825 0.0342653509 2.25123355 2.11417215 2.26493969 2.11074561 2.24095395 0.455729167 1.90515351 0.39747807 1.89830044 0.0205592105 2.85773026 0.00342653509"></polygon>
                </g>
            </g>
            <g id="Group" transform="translate(30.275750, 43.518402)" fill="#FF1616" fill-rule="nonzero">
                <g id="Path">
                    <path d="M2.67685948,2.75836075 C2.5809165,2.8611568 2.4378586,2.95881294 2.24854259,3.04961623 C2.05837001,3.1412761 1.81508579,3.19610066 1.51869062,3.21408991 C1.09808338,3.23721904 0.747720224,3.11472039 0.466744347,2.84745066 C0.18576847,2.57846776 0.0324309699,2.21868136 0.00758864535,1.76809211 L0.00416211026,1.66186952 C-0.0232501704,1.19414759 0.0846857945,0.806948904 0.329682944,0.500274123 C0.57639347,0.191885965 0.908767373,0.0265557018 1.32680465,0.00342653509 C1.57094522,-0.0102796053 1.79623996,0.0171326754 2.00183207,0.0856633772 C2.20913755,0.152480921 2.38389062,0.248423904 2.52609193,0.373492325 L2.56035729,1.00054825 L2.09777505,1.02453399 L1.98812593,0.613349781 C1.92644829,0.567948246 1.84763799,0.533682895 1.75169501,0.510553728 C1.65746518,0.485711404 1.55038601,0.476288377 1.42960071,0.483141447 C1.1554779,0.496847588 0.948172637,0.609066667 0.809397856,0.818941886 C0.672336452,1.0296739 0.612372198,1.29780022 0.631218031,1.62417763 L0.634644566,1.73382675 C0.652633821,2.04906798 0.740867154,2.29834846 0.898487768,2.4808114 C1.05610838,2.66156118 1.27369325,2.74465461 1.55295597,2.73094846 C1.68059435,2.72238224 1.78253382,2.70524934 1.85791759,2.67955044 C1.93501474,2.65470811 1.994979,2.62729583 2.03609742,2.5973136 L2.00868514,2.06620066 L1.55980904,2.05592105 L1.53582329,1.6207511 L2.61175531,1.5625 L2.67685948,2.75836075 Z"></path>
                </g>
            </g>
            <g id="Group" transform="translate(34.668017, 43.113910)" fill="#FF1616" fill-rule="nonzero">
                <g id="Path">
                    <polygon points="2.77206689 0 2.84745066 0.825794956 2.36773575 0.870339912 2.31291118 0.520833333 1.74067982 0.575657895 1.94284539 2.77206689 2.28207237 2.79947917 2.31633772 3.17639803 1.02796053 3.29632675 0.993695175 2.91940789 1.31921601 2.83031798 1.11705044 0.633908991 0.544819079 0.685307018 0.551672149 1.03824013 0.0753837719 1.08278509 0 0.256990132"></polygon>
                </g>
            </g>
            <g id="Group" transform="translate(39.224116, 42.496598)" fill="#FF1616" fill-rule="nonzero">
                <g transform="translate(0.000000, 0.000000)" id="Path">
                    <polygon points="0.0513980263 0.791529605 0 0.418037281 1.28152412 0.250137061 1.33292215 0.623629386 1.00740132 0.733278509 1.12733004 1.62417763 2.39172149 1.45627741 2.27179276 0.565378289 1.93256579 0.541392544 1.88116776 0.167900219 2.21354167 0.126781798 2.83031798 0.0445449561 3.16611842 0 3.21751645 0.373492325 2.88856908 0.483141447 3.1832511 2.70353618 3.52933114 2.72066886 3.57730263 3.09416118 2.29235197 3.2620614 2.24438048 2.88856908 2.56647478 2.78577303 2.45339912 1.93256579 1.18900768 2.10046601 1.30208333 2.95367325 1.64473684 2.97080592 1.69270833 3.34429825 0.411184211 3.51219846 0.363212719 3.13870614 0.681880482 3.03591009 0.387198465 0.815515351"></polygon>
                </g>
            </g>
        </g>
    </g>
</svg>